<?xml version="1.0" encoding="utf-8"?>
<!-- Generator: Adobe Illustrator 16.0.0, SVG Export Plug-In . SVG Version: 6.00 Build 0)  -->
<!DOCTYPE svg PUBLIC "-//W3C//DTD SVG 1.1//EN" "http://www.w3.org/Graphics/SVG/1.1/DTD/svg11.dtd">
<svg version="1.1" xmlns="http://www.w3.org/2000/svg" xmlns:xlink="http://www.w3.org/1999/xlink" x="0px" y="0px"
	 width="134.229px" height="60.313px" viewBox="0 0 134.229 60.313" enable-background="new 0 0 134.229 60.313"
	 xml:space="preserve">
<g id="圖層_1" display="none">
	<path display="inline" fill="#EA9B5F" d="M93.961,10.65c0,0.74-0.601,1.34-1.34,1.34h-37.59c-0.739,0-1.34-0.6-1.34-1.34V1.34
		c0-0.74,0.601-1.34,1.34-1.34h37.59c0.739,0,1.34,0.6,1.34,1.34V10.65z"/>
	<path display="inline" fill="#E99356" d="M67.786,27.429c0,0.74-0.601,1.34-1.34,1.34H28.857c-0.74,0-1.34-0.6-1.34-1.34v-9.311
		c0-0.74,0.6-1.34,1.34-1.34h37.589c0.739,0,1.34,0.6,1.34,1.34V27.429z"/>
	<path display="inline" fill="#E78E51" d="M114.095,27.429c0,0.74-0.601,1.34-1.34,1.34H75.166c-0.74,0-1.34-0.6-1.34-1.34v-9.311
		c0-0.74,0.6-1.34,1.34-1.34h37.589c0.739,0,1.34,0.6,1.34,1.34V27.429z"/>
	<path display="inline" fill="#E78F52" d="M40.27,42.866c0,0.74-0.601,1.34-1.34,1.34H1.34c-0.739,0-1.34-0.6-1.34-1.34v-9.311
		c0-0.74,0.601-1.34,1.34-1.34h37.59c0.739,0,1.34,0.6,1.34,1.34V42.866z"/>
	<path display="inline" fill="#EA9757" d="M87.92,42.866c0,0.74-0.6,1.34-1.34,1.34H48.992c-0.74,0-1.34-0.6-1.34-1.34v-9.311
		c0-0.74,0.6-1.34,1.34-1.34H86.58c0.74,0,1.34,0.6,1.34,1.34V42.866z"/>
	<path display="inline" fill="#E78D4D" d="M134.229,42.866c0,0.74-0.6,1.34-1.34,1.34H95.301c-0.74,0-1.34-0.6-1.34-1.34v-9.311
		c0-0.74,0.6-1.34,1.34-1.34h37.588c0.74,0,1.34,0.6,1.34,1.34V42.866z"/>
	<path display="inline" fill="#EA9757" d="M67.786,58.973c0,0.74-0.601,1.34-1.34,1.34H28.857c-0.74,0-1.34-0.6-1.34-1.34v-9.311
		c0-0.74,0.6-1.34,1.34-1.34h37.589c0.739,0,1.34,0.6,1.34,1.34V58.973z"/>
	<path display="inline" fill="#E89256" d="M114.095,58.973c0,0.74-0.601,1.34-1.34,1.34H75.166c-0.74,0-1.34-0.6-1.34-1.34v-9.311
		c0-0.74,0.6-1.34,1.34-1.34h37.589c0.739,0,1.34,0.6,1.34,1.34V58.973z"/>
</g>
<g id="圖層_2" display="none">
	<path display="inline" fill="#EA9B5F" d="M93.241,10.65c0,0.74-0.6,1.34-1.34,1.34H54.314c-0.74,0-1.34-0.6-1.34-1.34V1.34
		c0-0.74,0.6-1.34,1.34-1.34h37.587c0.74,0,1.34,0.6,1.34,1.34V10.65z"/>
	<path display="inline" fill="#E99356" d="M67.068,27.429c0,0.74-0.6,1.34-1.34,1.34H28.139c-0.739,0-1.34-0.6-1.34-1.34v-9.311
		c0-0.74,0.601-1.34,1.34-1.34h37.589c0.74,0,1.34,0.6,1.34,1.34V27.429z"/>
	<path display="inline" fill="#EA9757" d="M87.202,42.865c0,0.74-0.6,1.34-1.34,1.34H48.273c-0.739,0-1.34-0.6-1.34-1.34v-9.311
		c0-0.74,0.601-1.34,1.34-1.34h37.589c0.74,0,1.34,0.6,1.34,1.34V42.865z"/>
	<path display="inline" fill="#EA9757" d="M67.068,58.972c0,0.74-0.6,1.34-1.34,1.34H28.139c-0.739,0-1.34-0.6-1.34-1.34v-9.311
		c0-0.74,0.601-1.34,1.34-1.34h37.589c0.74,0,1.34,0.6,1.34,1.34V58.972z"/>
	<path display="inline" fill="#E89256" d="M113.376,58.972c0,0.74-0.6,1.34-1.34,1.34H74.448c-0.74,0-1.34-0.6-1.34-1.34v-9.311
		c0-0.74,0.6-1.34,1.34-1.34h37.588c0.74,0,1.34,0.6,1.34,1.34V58.972z"/>
</g>
<g id="圖層_3" display="none">
	<path display="inline" fill="#E99356" d="M78.761,19.04c0,0.74,0.601,1.34,1.34,1.34h37.59c0.739,0,1.34-0.6,1.34-1.34v-9.31
		c0-0.74-0.601-1.34-1.34-1.34h-37.59c-0.739,0-1.34,0.6-1.34,1.34V19.04z"/>
	<path display="inline" fill="#E78E51" d="M32.452,19.04c0,0.74,0.601,1.34,1.34,1.34h37.59c0.739,0,1.34-0.6,1.34-1.34v-9.31
		c0-0.74-0.601-1.34-1.34-1.34h-37.59c-0.739,0-1.34,0.6-1.34,1.34V19.04z"/>
	<path display="inline" fill="#EA9757" d="M58.627,34.475c0,0.74,0.601,1.34,1.34,1.34h37.589c0.74,0,1.34-0.6,1.34-1.34v-9.311
		c0-0.74-0.6-1.34-1.34-1.34H59.967c-0.739,0-1.34,0.6-1.34,1.34V34.475z"/>
	<path display="inline" fill="#E78D4D" d="M12.318,34.475c0,0.74,0.601,1.34,1.34,1.34h37.589c0.74,0,1.34-0.6,1.34-1.34v-9.311
		c0-0.74-0.6-1.34-1.34-1.34H13.658c-0.739,0-1.34,0.6-1.34,1.34V34.475z"/>
	<path display="inline" fill="#EA9757" d="M78.761,50.583c0,0.74,0.601,1.34,1.34,1.34h37.59c0.739,0,1.34-0.6,1.34-1.34v-9.311
		c0-0.74-0.601-1.34-1.34-1.34h-37.59c-0.739,0-1.34,0.6-1.34,1.34V50.583z"/>
	<path display="inline" fill="#E89256" d="M32.452,50.583c0,0.74,0.601,1.34,1.34,1.34h37.59c0.739,0,1.34-0.6,1.34-1.34v-9.311
		c0-0.74-0.601-1.34-1.34-1.34h-37.59c-0.739,0-1.34,0.6-1.34,1.34V50.583z"/>
</g>
<g id="圖層_4">
	<path fill="#EA9B5F" d="M30.202,10.651c0,0.74,0.6,1.34,1.34,1.34h37.589c0.74,0,1.34-0.6,1.34-1.34V1.34
		c0-0.74-0.6-1.34-1.34-1.34H31.542c-0.74,0-1.34,0.6-1.34,1.34V10.651z"/>
	<path fill="#E99356" d="M56.377,27.43c0,0.74,0.6,1.34,1.34,1.34h37.588c0.74,0,1.34-0.6,1.34-1.34V18.12
		c0-0.74-0.6-1.34-1.34-1.34H57.717c-0.74,0-1.34,0.6-1.34,1.34V27.43z"/>
	<path fill="#E78F52" d="M83.894,42.866c0,0.74,0.601,1.34,1.34,1.34h37.589c0.74,0,1.34-0.6,1.34-1.34v-9.311
		c0-0.74-0.6-1.34-1.34-1.34H85.233c-0.739,0-1.34,0.6-1.34,1.34V42.866z"/>
	<path fill="#EA9757" d="M36.242,42.866c0,0.74,0.6,1.34,1.34,1.34h37.589c0.739,0,1.34-0.6,1.34-1.34v-9.311
		c0-0.74-0.601-1.34-1.34-1.34H37.582c-0.74,0-1.34,0.6-1.34,1.34V42.866z"/>
	<path fill="#E89256" d="M10.068,58.973c0,0.74,0.6,1.34,1.34,1.34h37.588c0.74,0,1.34-0.6,1.34-1.34v-9.311
		c0-0.74-0.6-1.34-1.34-1.34H11.408c-0.74,0-1.34,0.6-1.34,1.34V58.973z"/>
</g>
</svg>
