<?xml version="1.0" encoding="utf-8"?>
<!-- Generator: Adobe Illustrator 16.0.0, SVG Export Plug-In . SVG Version: 6.00 Build 0)  -->
<!DOCTYPE svg PUBLIC "-//W3C//DTD SVG 1.1//EN" "http://www.w3.org/Graphics/SVG/1.1/DTD/svg11.dtd">
<svg version="1.1" id="圖層_1" xmlns="http://www.w3.org/2000/svg" xmlns:xlink="http://www.w3.org/1999/xlink" x="0px" y="0px"
	 width="200px" height="200px" viewBox="0 0 200 200" enable-background="new 0 0 200 200" xml:space="preserve">
<g>
	<path fill="#010C39" d="M151.294,51.288c-9.142-53.303-47.018-41.233-51.453-39.625c-4.436-1.609-42.312-13.678-51.453,39.625
		c-9.714,56.643-62.83,57.023-32.655,89.798c26.169,28.424,72.315,26.757,84.108,25.813c11.792,0.943,57.938,2.61,84.108-25.813
		C214.124,108.311,161.008,107.931,151.294,51.288z"/>
	<path fill="#00071E" d="M96.246,38c-3-2-8,4-11,9c-19.108,36.396-29.11,74.449-41.304,112.65
		c23.079,8.895,47.73,7.902,55.899,7.249c9.883,0.79,43.897,2.079,70.057-14.257C155.387,108.285,134.969,67.042,96.246,38z"/>
	<path fill="#FFCAA6" d="M128.789,65.05c-4.105,6.495-4.686,16.963,0.637,20.328c5.321,3.364,14.529-1.651,18.635-8.146
		s3.119-14.487-2.203-17.851C140.536,56.017,132.894,58.555,128.789,65.05z"/>
	<path fill="#FFCAA6" d="M76.901,66.636c4.556,6.188,5.876,16.589,0.806,20.322s-14.61-0.616-19.166-6.804
		s-4.139-14.229,0.931-17.962C64.542,58.459,72.345,60.449,76.901,66.636z"/>
	<g>
		<defs>
			<path id="SVGID_1_" d="M144.508,139.846c-31.828-9.92-23.148-42.782-23.148-42.782l-14.674-1.79v-0.277l-1.137,0.139
				l-1.137-0.139v0.277l-14.674,1.79c0,0,8.68,32.862-23.148,42.782c-31.829,9.921-39.063,19.842-41.542,59.11h79.365h2.273h79.364
				C183.57,159.688,176.336,149.767,144.508,139.846z"/>
		</defs>
		<clipPath id="SVGID_2_">
			<use xlink:href="#SVGID_1_"  overflow="visible"/>
		</clipPath>
		<path clip-path="url(#SVGID_2_)" fill="#FFCAA6" d="M144.508,139.846c-31.828-9.92-23.148-42.782-23.148-42.782l-14.674-1.79
			v-0.277l-1.137,0.139l-1.137-0.139v0.277l-14.674,1.79c0,0,8.68,32.862-23.148,42.782c-31.829,9.921-39.063,19.842-41.542,59.11
			h79.365h2.273h79.364C183.57,159.688,176.336,149.767,144.508,139.846z"/>
		<g clip-path="url(#SVGID_2_)">
			<path fill="#EAA16E" d="M120.324,104.855c0.205-4.642,1.035-7.792,1.035-7.792l-14.674-1.79v-0.277l-1.137,0.139l-1.137-0.139
				v0.277l-14.674,1.79c0,0,1.417,5.368,1.005,12.419C93.964,116.057,105.549,125.172,120.324,104.855z"/>
			<g>
				<g>
					<g>
						<g>
							<path fill="#EDAD80" d="M120.913,105.283c-0.049-0.094-0.236-0.198-0.28-0.066l0.237,0.289L120.913,105.283z"/>
							<path fill="#EDAD80" d="M119.851,105.593c0.049,0.228,0.188,0.557,0.514,0.677c-0.187-0.332-0.048-0.274-0.281-0.654
								c0.045-0.129,0.229-0.113,0.323-0.017c-0.047-0.092,0.185-0.117,0.044-0.309c-0.327-0.028-0.462,0.137-0.413,0.455
								C119.944,105.736,119.897,105.642,119.851,105.593z"/>
							<path fill="#EDAD80" d="M110.567,114.071l0.091-0.009C110.626,114.055,110.597,114.06,110.567,114.071z"/>
							<path fill="#EDAD80" d="M103.495,116.566c0.056-0.014,0.075-0.052,0.075-0.085
								C103.521,116.511,103.48,116.536,103.495,116.566z"/>
							<path fill="#EDAD80" d="M102.24,116.214c0.026,0.01,0.047,0.017,0.071,0.025C102.284,116.205,102.257,116.187,102.24,116.214
								z"/>
							<path fill="#EDAD80" d="M110.567,114.071l-0.234,0.017C110.385,114.195,110.469,114.104,110.567,114.071z"/>
							<path fill="#EDAD80" d="M119.46,107.526c0.015-0.046,0.011-0.096-0.002-0.15c-0.011,0.039-0.022,0.074-0.037,0.109
								L119.46,107.526z"/>
							<path fill="#EDAD80" d="M113.078,111.782l0.048-0.041c-0.014-0.043-0.033-0.093-0.059-0.145L113.078,111.782z"/>
							<path fill="#EDAD80" d="M114.935,109.96c-0.051,0.032,0.153,0.263,0.231,0.374c-0.065-0.113-0.077-0.187-0.058-0.24
								C115.066,110.052,115.012,110.009,114.935,109.96z"/>
							<path fill="#EDAD80" d="M118.114,107.212l0.014-0.085C118.126,107.15,118.115,107.184,118.114,107.212z"/>
							<path fill="#EDAD80" d="M111.6,112.898c-0.03-0.034-0.062-0.061-0.084-0.074C111.538,112.854,111.568,112.879,111.6,112.898z
								"/>
							<path fill="#EDAD80" d="M121.996,101.935c-0.021-0.002-0.035-0.004-0.054-0.006
								C121.972,101.947,121.992,101.954,121.996,101.935z"/>
							<polygon fill="#EDAD80" points="120.245,104.852 120.23,104.809 120.06,104.792 							"/>
							<path fill="#EDAD80" d="M100.128,115.55l0.008,0.007C100.199,115.535,100.167,115.535,100.128,115.55z"/>
							<path fill="#EDAD80" d="M91.403,98.837c-0.225,0.305-0.422-0.359-0.654,0.082C90.862,98.86,91.284,99.191,91.403,98.837z"/>
							<path fill="#EDAD80" d="M119.385,107.556c-0.02,0.031-0.041,0.062-0.066,0.09
								C119.357,107.611,119.378,107.584,119.385,107.556z"/>
							<path fill="#EDAD80" d="M90.75,98.919l-0.002,0l-0.021,0.045C90.735,98.946,90.741,98.935,90.75,98.919z"/>
							<path fill="#EDAD80" d="M95.583,113.459c-0.025,0.048-0.036,0.093-0.043,0.138C95.558,113.57,95.572,113.533,95.583,113.459z
								"/>
							<path fill="#EDAD80" d="M98.705,115.764l-0.076-0.072C98.655,115.73,98.68,115.751,98.705,115.764z"/>
							<path fill="#EDAD80" d="M93.807,112.383c-0.02-0.056,0-0.098-0.08-0.124c-0.007,0.016-0.011,0.028-0.013,0.042
								C93.763,112.292,93.801,112.305,93.807,112.383z"/>
							<polygon fill="#EDAD80" points="92.467,110.699 92.438,110.767 92.491,110.813 							"/>
							<path fill="#EDAD80" d="M119.391,95.499c0.038,0.092,0.058,0.191,0.068,0.288C119.453,95.565,119.796,95.531,119.391,95.499z
								"/>
							<path fill="#EDAD80" d="M119.324,107.42c0.053,0.059,0.07,0.098,0.061,0.136l0.036-0.07
								C119.389,107.451,119.355,107.424,119.324,107.42z"/>
							<path fill="#EDAD80" d="M91.953,113.95l-0.23-0.328C91.773,113.726,91.857,113.845,91.953,113.95z"/>
							<path fill="#EDAD80" d="M102.8,94.085l0.078-0.047C102.845,94.035,102.816,94.048,102.8,94.085z"/>
							<path fill="#EDAD80" d="M90.944,112.733c0.044-0.123,0.05-0.22,0.037-0.307c-0.029,0.001-0.056-0.002-0.091,0.01
								L90.944,112.733z"/>
							<path fill="#EDAD80" d="M119.46,95.789l-0.001-0.003L119.46,95.789z"/>
							<path fill="#EDAD80" d="M123.384,96.183c0.187-0.7-0.407-0.003-0.66,0.052c0.002-0.036,0.005-0.068,0.006-0.088
								c-0.537-0.053,0.164-0.316,0.146-0.521c-0.621,0.026-1.269,0.315-1.559,0.261c0.024-0.064-0.023-0.095,0.11-0.161
								c-0.349,0.116-0.672,0.078-1.021,0.046c-0.32-0.028-0.763-0.061-0.918,0.122c-0.018-0.039-0.026-0.073-0.027-0.105
								c0.024,0.208,0.005,0.412-0.024,0.556c-0.154-0.013-0.318,0.215-0.342-0.054c0.094,0.02,0.115-0.084,0.17-0.161l-0.176,0.093
								c-0.095-0.396,0.237-0.101,0.273-0.38c-0.33,0.081-0.736,0.345-0.964,0.207c-0.001-0.375,0.579-0.05,0.302-0.419l0.354,0.19
								c-0.208-0.619,0.221,0.07,0.041-0.586c-0.476-0.171-0.572,0.115-1.047-0.056c-0.137,0.19-0.003,0.308-0.141,0.498
								c-0.742,0.276-0.425-0.998-1-0.574c-0.164,0.228-0.277,0.687-0.608,0.393l0.18-0.4c-0.47-0.104-0.35,0.563-0.81,0.217
								c0.109-0.151,0.391-0.089,0.325-0.148c-0.278-0.371-0.258,0.207-0.506,0.174l-0.003-0.375
								c-0.512-0.008-1.104,0.185-1.671,0.179c0.045-0.106,0.156-0.209,0.04-0.338c-0.729,0.092-1.499-0.243-2.151-0.551
								l-0.301,0.284c-0.061-0.011-0.094-0.158-0.021-0.212c-0.249-0.155-0.04,0.201-0.184,0.309
								c-0.154,0.002-0.175-0.209-0.067-0.292c-0.503,0.208-1.409,0.406-1.856,0l0.107-0.082c-0.366-0.18-0.519,0.596-0.835,0.251
								l0.076-0.047c-0.298-0.09-0.614-0.125-0.924-0.16c-0.154-0.02-0.307-0.04-0.456-0.06c-0.17-0.027-0.238-0.049-0.491-0.11
								c-0.188-0.021-0.271-0.049-0.368-0.089s-0.188-0.091-0.275-0.157c-0.122,0.463-0.831-0.206-0.886,0.439
								c-0.206-0.138-0.298-0.238-0.394-0.324c-0.048-0.043-0.097-0.083-0.161-0.122c-0.065-0.04-0.119-0.079-0.345-0.12
								c-0.061-0.019-0.237-0.023-0.307-0.044c-0.182-0.006-0.214,0.434-0.426,0.53l-0.05-0.334l-0.254,0.39l-0.213-0.378
								l-0.195,0.113c0.085,0.009,0.195,0.127,0.195,0.225c-0.305,0.194-0.82-0.129-0.852-0.299l-0.729,0.383
								c-0.001-0.137,0.122-0.2,0.212-0.299c-0.364,0.395-0.12-0.342-0.454,0.02c0.06,0.07-0.001,0.203-0.001,0.271
								c-0.214-0.178-0.64-0.123-0.943,0.003l0.03-0.239c-0.577,0.016-1.185,0.269-1.823,0.348c0.243,0.077,0.243,0.483,0.061,0.546
								l-0.121-0.343c-0.092,0.233,0.213,0.107,0,0.407c-0.244-0.009-0.213-0.38-0.091-0.514l-0.274,0.161
								c-0.031-0.103,0.03-0.167,0.03-0.304c-0.09,0.235-0.547-0.289-0.668,0.115l-0.03-0.103c-0.638,0.081-0.912,0.241-1.429,0.326
								c0.029,0.307-0.183,0.265-0.305,0.532c-0.396-0.047-0.851-0.23-1.307-0.144c-0.304,0.194-0.061,0.27-0.182,0.47
								c-0.061-0.274-0.517-0.188-0.305-0.419c-0.546,0.118-0.698,0.148-1.367,0.466c0.091,0.104,0.183,0.142,0.151,0.242
								c-0.12,0.063-0.304-0.079-0.303-0.214l0.029-0.033c-0.182,0.129-0.393,0.159-0.615,0.14c-0.123-0.008-0.2-0.034-0.365-0.055
								l-0.577-0.06c-0.779-0.083-1.758-0.119-2.022,0.21l0.032-0.033c-0.183,0.102-0.39,0.176-0.591,0.234l0.286,0.458
								c0.065,0.457-0.333-0.459-0.45-0.212c0.441,0.794,0.529,1.203,0.592,1.646c0.028,0.215,0.051,0.429,0.094,0.65
								c0.039,0.198,0.123,0.506,0.214,0.583c-0.736,0.561,0.304,1.517-0.151,2.174l0.189-0.058
								c0.208,0.127-0.088,0.196-0.119,0.312c0.148-0.033,0.153-0.185,0.27-0.103c0.388,1.258-0.026,2.68-0.163,3.986
								c-0.037,0.478,1.014,0.248,0.561,0.868l-0.364-0.168c0.224,0.481,0.221,0.982,0.199,1.477
								c-0.011,0.247-0.024,0.493-0.018,0.738c0.007,0.28,0.042,0.389,0.111,0.889c-0.079-0.093-0.187-0.094-0.178-0.266
								c-0.119,0.18-0.205,0.565-0.071,0.838c0.194,0.265,0.414,0.442,0.513,0.398c0.096,0.235-0.149,0.133-0.169,0.329
								c-0.003,0.325,0.58,0.351,0.422,0.595c-0.026,0.039-0.106-0.012-0.145-0.039c0.183,0.066,0.338,0.613,0.519,0.33
								c0.096,0.42,0.534,0.561,0.576,0.922c0.391-0.035,0.287,0.646,0.704,0.398c-0.408,0.287,0.14,0.8,0.484,0.825
								c-0.168,0.037,0.033,0.267-0.187,0.333c0.203,0.212,0.457,0.339,0.604,0.125c-0.042,0.809,1.085,0.391,0.803,1.149
								c0.822,0.357,1.563,0.681,2.278,0.991c-0.291,0.409-0.734-0.421-0.999,0.019c0.737,0.261,1.305,0.112,1.879,0.554
								c0.135,0.146-0.194,0.141-0.291,0.184c0.739,0.167,1.277,0.672,1.992,0.64c-0.018,0.043-0.101,0.066-0.177,0.079
								c0.127,0.028,0.261,0.169,0.32-0.048l-0.138,0.016c-0.079-0.369,0.693-0.481,0.758-0.646
								c-0.392,0.557,0.551,0.327,0.005,1.016c0.095-0.018,0.225-0.093,0.245-0.242c0.108,0.074,0.128,0.168-0.04,0.301
								c0.483-0.005,0.375-0.275,0.777-0.185c-0.022,0.106-0.113,0.131-0.183,0.247c0.254-0.163,0.493-0.332,0.82-0.188
								c-0.03,0.062-0.003,0.152-0.105,0.134c0.612,0.058,1.063-0.434,1.688-0.213c-0.201,0.469,0.217,0.159,0.252,0.565
								l0.357-0.127l-0.146-0.194c0.312,0,0.563-0.312,0.83-0.199l-0.214,0.185l0.565-0.128l-0.336-0.122
								c0.283-0.239-0.078-0.51,0.322-0.438c-0.073,0.051,0.289-0.028,0.478,0.186l-0.001,0.001c0.128-0.151,0.25-0.31,0.481-0.25
								c0.081,0.118,0.039,0.452,0.092,0.531c0.081-0.36,0.68-0.239,0.77-0.641c-0.038,0.098,0.011,0.306,0.041,0.344l0.05-0.299
								c0.155,0.05,0.188,0.086,0.21,0.257c0.419-0.064-0.265-0.462,0.27-0.383c-0.031,0.032-0.001,0.067-0.067,0.129
								c0.515-0.028,0.855-0.454,1.323-0.491c0.276,0.335-0.338,0.236-0.071,0.506c0.611-0.308,1.079-0.976,1.68-1.174l-0.126,0.013
								c-0.187-0.555,0.55,0.043,0.703-0.356c-0.047,0.075,0.064,0.333,0.053,0.265c0.429-0.129,0.71-0.563,1.155-1.067l0.013,0.17
								c0.286-0.026,0.604-0.304,0.866-0.406c-0.018-0.168,0.123-0.238-0.079-0.361c1.196,0.192,1.002-1.313,2.01-1.238
								c-0.067,0.059-0.08,0.236-0.025,0.191l0.397-0.518c-0.204-0.157-0.164-0.061-0.393-0.124
								c-0.037-0.166,0.021-0.367,0.136-0.47c-0.101,0.312,0.27,0.304,0.456,0.326c-0.067-0.044-0.093-0.136-0.152-0.188
								c0.546,0.115-0.298-0.415,0.235-0.489l0.071,0.113c0.079-0.162,0.07-0.396,0.229-0.491c0.255,0.162-0.036,0.221,0.119,0.404
								c0.177-0.187-0.019-0.745,0.349-0.693c-0.021,0.134-0.132,0.241-0.154,0.374c0.419,0.075,0.381-0.009,0.553-0.102
								l-0.019,0.008l0.418-0.194l-0.144,0.013c-0.313-0.765,0.361-0.561,0.297-1.217c0.055,0.627,0.15,0.239,0.368,0.491
								c0.142-0.016,0.332-0.067,0.367,0.031c-0.054-0.331,0.39-0.105,0.3-0.584c0.087,0.063,0.154-0.154,0.321,0.061
								c0.117-0.254-0.18-0.078-0.263-0.186c0.003-0.544,0.976-0.422,0.98-1.197c0.17-0.519-0.047-0.82,0.109-1.291
								c0.23-0.013,0.219,0.346,0.219,0.346c0.282-0.096,0.381-0.264,0.436-0.526c0.042,0.096,0.135,0.106,0.273,0.124
								c0.099-0.168-0.224-0.342,0.058-0.442c0.066,0.107,0.181,0.269,0.216,0.416c0.065-0.238,0.046-0.539,0.114-0.782
								c0.186,0.064,0.136,0.284,0.181,0.425c0.098-0.26,0.285-0.646,0.101-0.889l-0.186,0.07c0.046-0.085,0.229,0.114,0.229,0.203
								c0.046,0.32-0.279,0.196-0.371,0.141l0.047-0.173c-0.599-0.249-0.328,0.588-0.568,0.829l-0.27-0.393l0.081,0.503
								c-0.138-0.017-0.366-0.139-0.316-0.309c-0.324,0.044-0.007,0.266-0.331,0.267c-0.044-0.008-0.055-0.029-0.055-0.057
								l-0.043,0.266c-0.045-0.096-0.272-0.175-0.132-0.242c-0.465,0.151-0.165,0.734-0.531,0.632l0.001-0.045
								c-0.256,0.539,0.221,0.259,0.232,0.845l-0.813-0.319l0.214,0.263c-0.049,0.036-0.146,0.107-0.23,0.003
								c0.023,0.317,0.134,0.067,0.21,0.308c-0.417,0.013-0.428,0.687-0.864,0.373c0.117,0.248,0.331-0.068,0.252,0.276
								c-0.479-0.325-0.169,0.328-0.542,0.338c-0.159-0.263,0.125-0.333-0.246-0.325c0.254,0.459-0.43,0.289-0.513,0.511
								c0.275,0.287-0.219,0.456-0.391,0.807c-0.075-0.11-0.651,0.324-1.001,0.444l-0.037-0.056
								c0.223,0.342-0.091,0.522-0.229,0.754c-0.151-0.188-0.179-0.289-0.146-0.462l-0.178,0.16c0.041,0.133,0.029,0.233-0.06,0.37
								l-0.149-0.267c-0.228,0.218-0.263,0.686-0.709,0.785c0.153,0.235,0.748,0.401,0.515,0.825
								c-0.107-0.108-0.279-0.302-0.228-0.422c-0.018,0.039-0.028,0.183-0.128,0.179l-0.02-0.309
								c-0.218,0.029,0.054,0.229-0.08,0.304c-0.13-0.172-0.183-0.054-0.271-0.203c0.018-0.039,0.159-0.009,0.15-0.111
								c-0.155,0.075-0.396,0.095-0.548,0.006c0.086,0.088,0.177,0.231,0.095,0.328c-0.248,0.202-0.243-0.144-0.456-0.123
								c0.026,0.166-0.229,0.156-0.045,0.423c-0.077,0.053-0.178-0.06-0.257-0.111c-0.051,0.212-0.606,0.463-0.263,0.646
								l0.047-0.005c-0.002,0.01-0.01,0.016-0.015,0.026l0.002-0.001l-0.002,0.001c-0.279,0.575-1.047,0.455-1.439,0.832
								l-0.053-0.096c-0.218,0.267-0.588,0.4-0.691,0.709c-0.087,0.043-0.287-0.078-0.308-0.212
								c-0.183,0.176-0.159,0.301-0.552,0.28c0.146-0.271-0.144-0.12,0.171-0.228c-0.325,0.042-0.451-0.091-0.648,0.309
								c0.001-0.298-0.343-0.237-0.449-0.111l0.271,0.108c-0.141,0.097-0.285,0.126-0.432,0.152l-0.049-0.37
								c-0.7-0.216-0.857,1.067-1.507,0.46c-0.104,0.286,0.368,0.096,0.297,0.418c-0.301,0.025-0.696-0.43-0.779-0.415
								c-0.405-0.131-0.264,0.589-0.694,0.508c0.066,0.123,0.167,0.461-0.141,0.619c-0.309-0.02-0.407-0.509-0.238-0.629
								c0.066-0.017,0.104,0.021,0.105,0.064c0.088-0.055,0.201-0.126,0.074-0.252l-0.022,0.133
								c-0.154-0.116-0.536-0.074-0.46-0.293c-0.201,0.135-0.079,0.22,0.085,0.274c-0.371-0.164-0.565,0.025-0.936-0.104
								c0.057,0.072,0.111,0.226,0.052,0.224c-0.545-0.174-0.248,0.242-0.635,0.28c-0.201-0.215,0.109-0.464-0.277-0.33
								c-0.214-0.156-0.012-0.348,0.083-0.445c-0.355,0.22-0.589-0.234-0.755-0.31l0.182-0.076c-0.108,0.045-0.19,0.032-0.272,0.015
								l0.051,0.272c-0.092-0.061-0.175-0.078-0.153-0.184c-0.136,0.146,0.001,0.44-0.254,0.627
								c-0.11-0.155-0.454,0.044-0.419-0.303c0.396,0.215,0.036-0.345,0.398-0.318c-0.075,0.023-0.158,0.006-0.245-0.063
								c-0.005-0.041,0.031-0.066,0.062-0.078c-0.309-0.396-0.273,0.336-0.686,0.209c0.107-0.17,0.014-0.381-0.063-0.361
								c0.158,0.054-0.017,0.334-0.217,0.427c-0.215-0.231-0.324,0.007-0.458-0.061l0.134,0.125
								c-0.12,0.163-0.247,0.091-0.456,0.073c0.04-0.146,0.207-0.029,0.165-0.118c-0.338,0.235-0.326-0.512-0.691-0.429
								c-0.071-0.179,0.143-0.336,0.073-0.468c-0.41,0.077-0.196-0.394-0.595-0.377c-0.041,0.275,0.01,0.233-0.335,0.328
								l0.602,0.119l-0.513,0.156c0.158,0.093,0.412,0.035,0.487,0.122c-0.258,0.107-0.214,0.057-0.234,0.29
								c-0.039-0.46-0.552-0.033-0.676-0.413l0.337-0.552c-0.2-0.456-0.811-0.11-1.168-0.574l0.077,0.195
								c-0.213,0.166-0.299-0.174-0.504-0.203c0.146-0.16,0.106-0.291,0.131-0.442c-0.095,0.131-0.297-0.263-0.616,0.029l0-0.378
								c-0.248-0.381-0.798,0.104-1.064-0.266c0.259-0.071,0.23-0.316,0.552-0.233c-0.1-0.102-0.161-0.221-0.271-0.118
								c0.04-0.151-0.489-0.091-0.427-0.33c-0.111,0.019-0.294,0.155-0.391,0.018c0.021-0.042,0.081-0.07,0.081-0.07
								c-0.081,0.072-0.28-0.102-0.366,0.165c0.215-0.771-0.851-0.979-0.601-1.646c-0.238-0.221-0.503-0.51-0.662-0.753
								c0.064-0.017,0.093-0.054,0.101,0.005c-0.015-0.428-0.682,0.063-0.671-0.395c0.248-0.28,0.258,0.085,0.33-0.063
								c0.311-0.173,0.268-0.202,0.169-0.262c-0.082-0.06-0.157-0.179,0.049-0.264c-0.001,0.014,0.039,0.045,0.039,0.045
								c0.252-0.169-0.243-0.604-0.181-0.992c0,0,0.062,0.021,0.106,0.005c-0.354-0.289-0.465-0.814-0.566-1.204
								c0.278,0.121,0.146,0.178,0.43,0.104c-0.04-0.175-0.453,0.051-0.534-0.297c0.151-0.113,0.283-0.366,0.583-0.404l0.019,0.332
								c0.39-0.174-0.017-0.431,0.047-0.605l0.171,0.02c-0.065-0.511-0.497-0.504-0.485-1.049l-0.126,0.062
								c-0.438-0.277,0.229-0.259-0.101-0.539l0.426-0.112c-0.114-0.192-0.456-0.662-0.563-1.004
								c0.333,0.174,0.526,0.574,0.729,0.82c-0.006-0.195-0.073-0.663-0.292-0.749c0.047,0.076,0.159,0.167,0.098,0.249
								c-0.354-0.216-0.544-0.514-0.569-0.897c0.841-0.006,0.117-1.022,0.727-1.375c-0.386-0.65-0.04-1.382-0.22-2.181
								c-0.597,0.389-0.056-0.23-0.708-0.07c-0.073-0.177-0.075-0.248-0.035-0.272c0.002,0.012,0.068-0.193,0.158-0.252
								c0.085-0.086,0.177-0.138,0.177-0.138c0.191-0.037,0.163,0.07,0.313,0.055c0.034-0.094,0.281-0.033,0.466-0.017
								c-0.25-0.036-0.368-0.098-0.276-0.103c-0.003-0.016-0.321-0.042-0.318-0.026c-0.209-0.142-0.071-0.159,0.082-0.109
								c0.149,0.034,0.314,0.137,0.095-0.047c0,0,0.064,0.049,0.128,0.098c0.063,0.043,0.125,0.087,0.125,0.087
								c-0.027-0.021-0.046-0.038-0.062-0.056c-0.021-0.058,0.005-0.05-0.166-0.472c0.068,0.069,0.176,0.24,0.178,0.288
								c0.047,0.014,0.066-0.014,0.097-0.063c0.018-0.025,0.028-0.053,0.061-0.086l0.264-0.122c0.35-0.159,0.684-0.284,0.972-0.155
								l-0.03,0.169c0.122-0.064,0.184-0.334,0.365-0.192c0,0.068-0.03,0.169,0.03,0.17c0.061-0.065,0.304-0.329,0.487-0.257
								l-0.122,0.202c0.699,0.124,0.972-0.58,1.52-0.765c0.062,0.477,0.61,0.563,0.884,0.606v0.068
								c0.79-0.044,1.275-0.57,1.975-0.853c0.517,0.459,1.55,0.017,2.311,0.212c-0.122-0.072-0.031-0.374,0.091-0.438
								c0.183,0.074,0.425-0.393,0.456,0.048h-0.061c0.184,0.413,0.517,0.252,0.791,0.229l-0.03-0.579
								c0.82,0.74,1.824-0.551,2.31,0.145c0.127-0.162,0.425-0.2,0.459-0.35l0.021,0.31l0.006,0.004
								c-0.011,0.019,0.134,0.035,0.224,0.048c0.097,0.013,0.188,0.022,0.283,0.026c0.191,0.01,0.396,0,0.687-0.036l-0.121,0.222
								c0.335,0.021,0.422-0.893,0.73-0.911l0.094,0.462c0.1-0.001,0.204,0.009,0.206,0.024c-0.004,0.02,0.169,0.071,0.274,0.112
								c0.117,0.042,0.235,0.083,0.355,0.11c0.239,0.054,0.485,0.055,0.747-0.087c-0.019,0.066-0.053,0.197-0.148,0.203
								c0.271,0.048,1.013,0.448,0.996-0.193c-0.048,0.411,0.591,0.119,0.928-0.021l-0.088,0.296
								c0.313-0.352,0.336-0.456,0.719-0.515c0.082,0.051,0.045,0.252-0.062,0.16c0.27,0.196,0.264-0.256,0.596-0.049l-0.156,0.175
								c0.296,0.063,0.285-0.044,0.48-0.247c0.203-0.097,0.557,0.151,0.565,0.43c0.063-0.162,0.255-0.363,0.422-0.261
								c0.01,0.106-0.063,0.162-0.1,0.189c0.474,0.271,0.791-0.254,1.095,0.088c-0.005,0.101,0.011,0.154,0.035,0.188
								c-0.396-0.06-0.714-0.118-0.682-0.136c-0.036,0.278,0.278,0.37-0.028,0.721c0.286-0.176,0.786-0.574,1.082-0.402
								c0.012,0.029,0.023,0.058,0.028,0.102l-0.036,0.027c0.068,0.037,0.137,0.02,0.203-0.019c0.095,0.059,0.153,0.102,0.249,0.118
								c0.007,0.235,0.352,0.173,0.51,0.206c0.027-0.307,0.23-0.23,0.067-0.508c0.022,0.025-0.035,0.033-0.144,0.032
								c-0.025,0.005-0.054,0.006-0.072,0.022l0.015-0.025c-0.106-0.008-0.244-0.019-0.401-0.032
								c0.147-0.138,0.297-0.251,0.452-0.059c0.107-0.185,0.224-0.375,0.287-0.462c0.164,0.454,0.556,0.739,0.58,1.009
								c0.512-0.106,1.167,0.039,1.549-0.494c0.148-0.055,0.139,0.185,0.179,0.282c-0.088,0.047-0.183,0.026-0.236,0.103
								c0.297-0.11,0.83,0.051,0.949-0.34c0.327,0.227-0.245,0.342,0.245,0.34l-0.082,0.114c0.432,0.382,0.851,0.177,1.278-0.003
								c0.216-0.09,0.32-0.189,0.514-0.194c0.168-0.009,0.342,0.065,0.332,0.272c-0.002-0.052-0.008-0.076,0.032-0.139
								c0.108,0.111,0.289,0.125,0.4,0.189c-0.066,0.274-0.039,0.533-0.077,0.855c-0.009,0.079-0.021,0.158-0.038,0.237
								c-0.021,0.096-0.053,0.228-0.088,0.337c-0.072,0.229-0.174,0.452-0.319,0.666c-0.166,0.323,0.083,0.399,0.248,0.633
								l-0.338,0.028l0.33,0.406c0.213,0.531-0.913,0.779-0.452,1.478l0.229-0.061c-0.065,0.225,0.063,0.736-0.187,0.677
								c0.038,0.027,0.224,0.095,0.101,0.175l-0.173-0.007l0.253,0.585c-0.152,0.431-0.682-0.115-0.754,0.528
								c0.052,0.246,0.469,0.707,0.588,0.622c0.014-0.096,0.12-0.24,0.293-0.238l0.079,0.22c0.507,0.063,1.021,0.244,1.4-0.252
								l-0.291-0.376l0.254-0.101l-0.003,0.302c0.243-0.157,0.043-0.276-0.09-0.407c0.133-0.021,0.229-0.064,0.282-0.132
								l-0.46-0.387c0.201-0.027,0.382,0.188,0.51-0.04c-0.213-0.182-0.458,0.125-0.584-0.161c0.244-0.154,0.428-0.087,0.248-0.305
								c0.133-0.017,0.213,0.033,0.264,0.117c-0.143-0.192-0.024-0.478-0.285-0.596c0.302-0.15-0.012-0.613,0.467-0.543
								c-0.109-0.067-0.341-0.355-0.341-0.522c0.535,0.368,0.11-0.609,0.715-0.449c-0.485-0.289-0.118-0.821-0.339-1.253
								c0.037,0.028,0.113,0.084,0.081,0.114c0.078-0.212,0.243-0.249,0.363-0.371c-0.209-0.05-0.322-0.164-0.412-0.295
								c-0.095-0.103-0.135-0.391-0.246-0.505c0.503-0.424,0.459,0.276,0.881,0.183c-0.353-0.019-0.183-0.854-0.519-0.648
								c0.346-0.384,0.192-0.308,0.627-0.602c-0.574,0.112-0.011-0.33-0.313-0.47c0.433-0.655,0.627-0.444,0.58-0.932
								C123.3,95.742,123.387,96.169,123.384,96.183z M113.799,95.244l0.001-0.006c0.069,0.002,0.129,0.003,0.167,0.005
								C113.933,95.242,113.884,95.243,113.799,95.244z M113.126,95.16c0.08,0.023,0.182,0.038,0.29,0.05
								c0.01,0.108-0.03,0.213-0.097,0.198C113.365,95.344,113.214,95.262,113.126,95.16z M114.271,97.459
								c-0.112,0.029-0.141-0.035-0.146-0.1c0.051,0.001,0.11-0.001,0.19-0.012l0.018-0.036
								C114.315,97.369,114.296,97.421,114.271,97.459z"/>
							<path fill="#EDAD80" d="M114.515,97.085c0.017-0.005,0.027-0.017,0.047-0.017c-0.018-0.03-0.036-0.055-0.054-0.077
								l-0.051,0.09L114.515,97.085z"/>
							<path fill="#EDAD80" d="M110.674,114.061l-0.016,0.002c0.016,0.004,0.032,0.008,0.048,0.02
								C110.69,114.075,110.685,114.067,110.674,114.061z"/>
							<polygon fill="#EDAD80" points="103.529,93.836 103.54,93.913 103.59,93.838 							"/>
							<path fill="#EDAD80" d="M114.271,112.596c0.022,0.016,0.052,0.026,0.09,0.026
								C114.346,112.607,114.312,112.602,114.271,112.596z"/>
							<path fill="#EDAD80" d="M115.521,111.524l0.243-0.084C115.647,111.467,115.574,111.497,115.521,111.524z"/>
							<path fill="#EDAD80" d="M116.52,110.734c-0.028-0.049-0.055-0.08-0.078-0.109h-0.003L116.52,110.734z"/>
							<path fill="#EDAD80" d="M98.073,117.724c-0.019-0.004-0.037-0.007-0.054-0.006C97.882,117.73,97.969,117.738,98.073,117.724z
								"/>
							<path fill="#EDAD80" d="M104.328,117.643c-0.055,0.064-0.111,0.127-0.174,0.171
								C104.266,117.822,104.352,117.816,104.328,117.643z"/>
							<polygon fill="#EDAD80" points="91.979,113.986 91.983,113.983 91.953,113.95 							"/>
							<path fill="#EDAD80" d="M103.869,117.844c0.116,0.048,0.207,0.024,0.285-0.03
								C104.063,117.806,103.954,117.786,103.869,117.844z"/>
							<path fill="#EDAD80" d="M120.176,106.657l0.046-0.04c-0.017-0.012-0.027-0.024-0.034-0.036L120.176,106.657z"/>
							<path fill="#EDAD80" d="M120.188,106.581l0.012-0.076C120.181,106.53,120.167,106.553,120.188,106.581z"/>
							<path fill="#EDAD80" d="M120.224,106.347l-0.024,0.158C120.229,106.467,120.274,106.425,120.224,106.347z"/>
							<path fill="#EDAD80" d="M119.029,107.88l0.075,0.085C119.093,107.942,119.069,107.914,119.029,107.88z"/>
							<path fill="#EDAD80" d="M118.732,108.292c0.097-0.077,0.379-0.083,0.431-0.259l-0.059-0.068
								C119.183,108.132,118.661,108.084,118.732,108.292z"/>
							<path fill="#EDAD80" d="M116.322,108.968l0.343-0.248c-0.137-0.024-0.318-0.061-0.215-0.22
								C115.84,108.65,116.72,108.599,116.322,108.968z"/>
							<path fill="#EDAD80" d="M115.323,109.783c0.114-0.196-0.126-0.118-0.166-0.173
								C115.138,109.785,115.134,109.829,115.323,109.783z"/>
							<path fill="#EDAD80" d="M108.086,115.256l-0.1-0.262C107.855,115.1,108.031,115.094,108.086,115.256z"/>
							<polygon fill="#EDAD80" points="106.974,117.273 107.199,117.378 107.191,117.108 							"/>
							<polygon fill="#EDAD80" points="105.397,115.673 105.453,115.617 105.225,115.782 							"/>
							<path fill="#EDAD80" d="M92.907,110.854l-0.25,0.241C92.772,111.148,93.097,110.937,92.907,110.854z"/>
							<path fill="#EDAD80" d="M91.58,105.044c0.169-0.082,0.271-0.282,0.097-0.395C91.66,104.806,91.533,104.966,91.58,105.044z"/>
							<polygon fill="#EDAD80" points="102.103,96.811 101.981,96.943 102.225,96.814 							"/>
						</g>
					</g>
				</g>
			</g>
		</g>
	</g>
	<path fill="#FFCAA6" d="M69.432,36.352c-0.224,0.656-7.286,45.417,9.146,62.003c16.431,16.586,44.849,6.769,51.772-10.23
		c5.977-14.672,7.131-42.317-4.494-59.213C114.229,12.016,80.902,2.715,69.432,36.352z"/>
	<g>
		<g>
			<path fill="#EAA16E" d="M89.959,48.534c0.766,8.464,1.532,16.928,2.298,25.392c0.016,0.173,0.112,0.358,0.301,0.396
				c1.614,0.315,3.228,0.63,4.842,0.946c0.517,0.101,0.737-0.689,0.218-0.791c-1.722-0.336-4.518-0.304-4.608-1.297
				c-0.259-2.856-0.517-5.712-0.776-8.568c-0.485-5.359-0.97-10.718-1.455-16.077C90.732,48.012,89.912,48.007,89.959,48.534
				L89.959,48.534z"/>
		</g>
	</g>
	
		<ellipse transform="matrix(-0.999 -0.0438 0.0438 -0.999 219.0641 130.2651)" fill="#010C39" cx="110.959" cy="62.733" rx="1.951" ry="2.79"/>
	
		<ellipse transform="matrix(-0.999 -0.0438 0.0438 -0.999 164.5358 130.8942)" fill="#010C39" cx="83.702" cy="63.645" rx="1.951" ry="2.79"/>
	<g>
		<g>
			<path fill="#EAA16E" d="M141.652,67.374c-1.754,0.117-3.542,0.917-4.666,2.278c-1.52,1.839-1.799,5.887,0.671,7.087
				c2.061,1.001,4.414-0.987,4.57-3.036c0.091-1.188-1.038-1.931-2.054-2.144c-1.291-0.271-2.657,0.264-3.501,1.244
				c-0.343,0.399,0.234,0.981,0.58,0.58c1.309-1.521,5.23-1.351,3.849,1.328c-0.885,1.717-3.364,1.996-4.153,0.077
				c-1.366-3.326,1.497-6.38,4.704-6.593C142.178,68.159,142.181,67.338,141.652,67.374L141.652,67.374z"/>
		</g>
	</g>
	<g>
		<g>
			<path fill="#EAA16E" d="M61.935,70.344c3.308,0.22,5.612,3.006,4.791,6.325c-0.539,2.179-3.028,1.928-4.122,0.385
				c-0.736-1.038-0.434-2.14,0.787-2.504c1.077-0.321,2.242,0.168,2.943,0.983c0.346,0.401,0.923-0.181,0.58-0.58
				c-1.252-1.455-5.376-2.131-5.54,0.664c-0.131,2.226,2.368,4.098,4.458,3.313c2.656-0.997,2.172-5.227,0.834-7.045
				c-1.055-1.434-2.984-2.245-4.73-2.361C61.406,69.489,61.41,70.31,61.935,70.344L61.935,70.344z"/>
		</g>
	</g>
	<g>
		<ellipse fill="#F4826C" cx="79.801" cy="78.972" rx="6.045" ry="4.883"/>
	</g>
	<g>
		<ellipse fill="#F4826C" cx="120.31" cy="76.071" rx="6.045" ry="4.883"/>
	</g>
	<ellipse fill="#EAA16E" cx="101.313" cy="94.313" rx="1.473" ry="0.685"/>
	<path fill="#010C39" d="M116.772,49.657c-0.265,1.387-2.889,0.696-6.168,0.069s-5.973-0.951-5.708-2.339
		c0.266-1.387,3.139-2.004,6.418-1.377S117.037,48.27,116.772,49.657z"/>
	<path fill="#010C39" d="M86.25,48.755c0.271,1.386-2.42,1.723-5.697,2.365c-3.276,0.642-5.897,1.345-6.168-0.042
		c-0.271-1.386,2.165-3.03,5.441-3.671C83.102,46.766,85.978,47.369,86.25,48.755z"/>
	<path fill="#253245" d="M149.703,141.545c-0.174,0.115-0.34,0.234-0.514,0.347c-20.78,14.218-68.232,15.936-87.959-0.29
		c-27.3,9.434-33.848,20.395-36.183,57.354h79.365h2.273h79.364C183.711,161.922,177.141,150.991,149.703,141.545z"/>
	<path fill="#131F2D" d="M154.246,181c-38.293,20.619-87.181,10.387-126.805-3.243c-1.133,5.947-1.871,12.916-2.394,21.199h79.365
		h2.273h79.364c-1.024-16.216-2.86-27.426-6.903-35.699C171.645,170.197,163.258,176.172,154.246,181z"/>
	<path fill="#F9A61A" d="M143.088,198.956v-59.577c0,0,8.68-1.085,15.294,5.529v54.048H143.088z"/>
	<path fill="#F9A61A" d="M67.847,198.956v-59.577c0,0-8.681-1.085-15.294,5.529v54.048H67.847z"/>
	<g>
		<g>
			<path fill="#EAA16E" d="M109.05,79.977c-3.98,7.32-16.953,8.659-20.331,0.098c-0.192-0.486-0.985-0.275-0.791,0.218
				c3.638,9.22,17.488,8.083,21.831,0.098C110.011,79.926,109.303,79.512,109.05,79.977L109.05,79.977z"/>
		</g>
	</g>
	<path fill="#010C39" d="M118.389,16.201c0,0-12.555,20.616-17.98,20.616c-5.425,0-1.544-11.005-1.544-11.005
		S90.488,45.083,65.687,47.15c0,0,1.078-35.919,34.612-33.475L118.389,16.201z"/>
	<path fill="#010C39" d="M112.912,16.149c0,0,11.771,28.225,19.475,27.392c3.274-0.354,4.111-3.563,3.992-7.136
		c-0.396-11.83-10.643-21.108-22.454-20.339C113.592,16.088,113.254,16.115,112.912,16.149z"/>
	<g>
		<g>
			<path fill="#FFFFFF" d="M58.456,65.552c0.402,8.948,6.959,15.506,15.908,15.908c8.938,0.401,15.533-7.559,15.908-15.908
				c0.401-8.938-7.56-15.533-15.908-15.908C65.426,49.243,58.831,57.204,58.456,65.552c-0.047,1.058,1.593,1.054,1.641,0
				c0.361-8.047,6.22-13.906,14.267-14.267c8.036-0.361,13.931,6.77,14.268,14.267c0.361,8.037-6.771,13.931-14.268,14.267
				c-8.036,0.361-13.931-6.77-14.267-14.267C60.049,64.498,58.408,64.494,58.456,65.552z"/>
		</g>
	</g>
	<g>
		<g>
			<path fill="#FFFFFF" d="M99.021,65.552c0.402,8.949,6.96,15.506,15.908,15.908c8.938,0.401,15.532-7.559,15.907-15.908
				c0.401-8.938-7.559-15.533-15.907-15.908C105.991,49.243,99.396,57.203,99.021,65.552c-0.047,1.058,1.593,1.054,1.641,0
				c0.361-8.047,6.221-13.906,14.268-14.267c8.036-0.361,13.93,6.77,14.267,14.267c0.361,8.037-6.77,13.931-14.267,14.267
				c-8.036,0.361-13.931-6.77-14.268-14.267C100.614,64.498,98.973,64.494,99.021,65.552z"/>
		</g>
	</g>
	<g>
		<g>
			<path fill="#FFFFFF" d="M90.031,66.132c2.687-2.661,6.452-2.324,9.233,0c0.806,0.673,1.973-0.481,1.16-1.16
				c-3.459-2.89-8.183-3.338-11.554,0C88.119,65.717,89.279,66.876,90.031,66.132L90.031,66.132z"/>
		</g>
	</g>
</g>
</svg>
