<?xml version="1.0" encoding="utf-8"?>
<!-- Generator: Adobe Illustrator 16.0.0, SVG Export Plug-In . SVG Version: 6.00 Build 0)  -->
<!DOCTYPE svg PUBLIC "-//W3C//DTD SVG 1.1//EN" "http://www.w3.org/Graphics/SVG/1.1/DTD/svg11.dtd">
<svg version="1.1" xmlns="http://www.w3.org/2000/svg" xmlns:xlink="http://www.w3.org/1999/xlink" x="0px" y="0px" width="200px"
	 height="200px" viewBox="0 0 200 200" enable-background="new 0 0 200 200" xml:space="preserve">
<g id="圖層_1" display="none">
	<g display="inline">
		<path fill="#E64054" d="M92.288,10.068c0,0,12.047-19.728,39.917-4.407c27.871,15.321,45.29,94.861,23.674,115.637
			c0,0-23.925-11.542-60.232-2.937c-36.308,8.604-54.566,5.456-54.566,5.456S44.032,7.73,92.288,10.068z"/>
		<path fill="#C61E3A" d="M92.374,39.605c-24.36,19.488-30.952,53.933-33.239,84.5c8.897-0.553,21.064-2.082,36.512-5.743
			c13.381-3.172,25.071-3.602,34.511-2.887c-0.642-17.843,0.73-35.687-2.242-53.53C124.868,46.713,102.529,31.481,92.374,39.605z"/>
		<path fill="#EAA271" d="M76.323,64.026c4.169,6.595,4.757,17.226-0.647,20.642c-5.404,3.417-14.754-1.676-18.923-8.271
			c-4.168-6.595-3.167-14.711,2.237-18.127C64.394,54.854,72.154,57.431,76.323,64.026z"/>
		<path fill="#EAA271" d="M129.012,65.637c-4.626,6.283-5.968,16.845-0.819,20.636s14.837-0.625,19.462-6.909
			c4.627-6.283,4.203-14.449-0.946-18.24C141.561,57.333,133.637,59.354,129.012,65.637z"/>
		<g>
			<defs>
				<path id="SVGID_1_" d="M60.361,139.977c32.319-10.073,23.505-43.442,23.505-43.442l14.9-1.817v-0.281l1.154,0.141l1.154-0.141
					v0.281l14.901,1.817c0,0-8.814,33.369,23.505,43.442c32.32,10.074,39.666,20.148,42.185,60.023h-80.591h-2.308h-80.59
					C20.695,160.125,28.041,150.051,60.361,139.977z"/>
			</defs>
			<clipPath id="SVGID_2_">
				<use xlink:href="#SVGID_1_"  overflow="visible"/>
			</clipPath>
			<path clip-path="url(#SVGID_2_)" fill="#EAA271" d="M60.361,139.977c32.319-10.073,23.505-43.442,23.505-43.442l14.9-1.817
				v-0.281l1.154,0.141l1.154-0.141v0.281l14.901,1.817c0,0-8.814,33.369,23.505,43.442c32.32,10.074,39.666,20.148,42.185,60.023
				h-80.591h-2.308h-80.59C20.695,160.125,28.041,150.051,60.361,139.977z"/>
			<g clip-path="url(#SVGID_2_)">
				<path fill="#D6854D" d="M84.918,104.446c-0.208-4.714-1.051-7.912-1.051-7.912l14.9-1.817v-0.281l1.154,0.141l1.154-0.141v0.281
					l14.901,1.817c0,0-1.438,5.451-1.021,12.61C111.686,115.82,99.921,125.076,84.918,104.446z"/>
				<g>
					<g>
						<g>
							<g>
								<path fill="#DB9464" d="M85.506,104.019c-0.104,0.016-0.261,0.164-0.149,0.244l0.347-0.139L85.506,104.019z"/>
								<path fill="#DB9464" d="M85.492,105.126c0.234,0.02,0.586-0.024,0.792-0.305c-0.369,0.088-0.274-0.028-0.705,0.088
									c-0.113-0.081-0.044-0.254,0.077-0.315c-0.102,0.018-0.057-0.211-0.282-0.134c-0.125,0.305-0.004,0.487,0.317,0.529
									C85.656,105.076,85.552,105.095,85.492,105.126z"/>
								<path fill="#DB9464" d="M94.262,114.657l-0.047-0.083C94.221,114.606,94.238,114.634,94.262,114.657z"/>
								<path fill="#DB9464" d="M101.875,117.754c-0.064,0.003-0.094,0.036-0.101,0.068
									C101.836,117.804,101.887,117.787,101.875,117.754z"/>
								<path fill="#DB9464" d="M103.327,118.206c-0.033-0.009-0.059-0.016-0.088-0.023
									C103.273,118.216,103.308,118.233,103.327,118.206z"/>
								<path fill="#DB9464" d="M94.262,114.657l0.121,0.214C94.46,114.781,94.336,114.737,94.262,114.657z"/>
								<path fill="#DB9464" d="M87.261,105.989c-0.041-0.024-0.09-0.031-0.145-0.03c0.034,0.019,0.066,0.037,0.097,0.06
									L87.261,105.989z"/>
								<path fill="#DB9464" d="M91.218,112.698l-0.051-0.043c-0.042,0.019-0.088,0.043-0.138,0.074L91.218,112.698z"/>
								<path fill="#DB9464" d="M89.163,110.842c0.035,0.053,0.269-0.147,0.38-0.225c-0.114,0.063-0.19,0.073-0.245,0.052
									C89.255,110.709,89.212,110.764,89.163,110.842z"/>
								<path fill="#DB9464" d="M86.67,107.241l-0.081-0.033C86.611,107.217,86.644,107.23,86.67,107.241z"/>
								<path fill="#DB9464" d="M92.722,114.006c-0.024,0.04-0.04,0.078-0.046,0.104C92.699,114.078,92.713,114.043,92.722,114.006z
									"/>
								<path fill="#DB9464" d="M86.111,101.161c-0.022,0.003-0.036,0.004-0.054,0.007
									C86.089,101.181,86.111,101.184,86.111,101.161z"/>
								<polygon fill="#DB9464" points="84.839,104.45 84.82,104.407 84.648,104.405 								"/>
								<path fill="#DB9464" d="M106.127,118.242c-0.007-0.001-0.008-0.001-0.014-0.002
									C106.049,118.29,106.089,118.275,106.127,118.242z"/>
								<path fill="#DB9464" d="M116.811,98.777c-0.315,0.202-0.275-0.468-0.643-0.145C116.292,98.619,116.58,99.056,116.811,98.777
									z"/>
								<path fill="#DB9464" d="M87.272,106.068c0.025,0.026,0.05,0.053,0.071,0.084C87.32,106.106,87.298,106.081,87.272,106.068z"
									/>
								<path fill="#DB9464" d="M116.168,98.632l-0.003,0l-0.035,0.035C116.146,98.653,116.154,98.645,116.168,98.632z"/>
								<path fill="#DB9464" d="M111.707,115.239c-0.044-0.033-0.089-0.05-0.134-0.064
									C111.595,115.199,111.63,115.22,111.707,115.239z"/>
								<path fill="#DB9464" d="M107.489,117.178l0.121-0.003C107.558,117.166,107.521,117.169,107.489,117.178z"/>
								<path fill="#DB9464" d="M113.149,113.291c0.059-0.028,0.104-0.016,0.13-0.105c-0.018-0.004-0.03-0.007-0.045-0.006
									C113.245,113.229,113.232,113.273,113.149,113.291z"/>
								<polygon fill="#DB9464" points="114.668,111.374 114.592,111.376 114.563,111.449 								"/>
								<path fill="#DB9464" d="M86.206,97.533c-0.062-0.079-0.105-0.17-0.142-0.26C86.128,97.485,85.8,97.607,86.206,97.533z"/>
								<path fill="#DB9464" d="M87.127,106.098c0.069-0.038,0.111-0.047,0.146-0.029l-0.06-0.05
									C87.173,106.042,87.138,106.068,87.127,106.098z"/>
								<path fill="#DB9464" d="M111.423,111.585l0.256-0.218C111.595,111.418,111.503,111.497,111.423,111.585z"/>
								<path fill="#DB9464" d="M102.385,96.01l-0.09,0.026C102.327,96.047,102.357,96.042,102.385,96.01z"/>
								<path fill="#DB9464" d="M112.264,110.57c0.122,0.019,0.212,0.005,0.283-0.024c-0.011-0.025-0.018-0.05-0.041-0.078
									L112.264,110.57z"/>
								<path fill="#DB9464" d="M86.063,97.271l0.001,0.003L86.063,97.271z"/>
								<path fill="#DB9464" d="M85.964,98.024c-0.365-0.245-0.512-0.344-0.745-0.501c-0.01-0.014-0.019-0.027-0.024-0.035
									c0.026-0.084,0.414,0.265,0.639,0.424c-0.109-0.093-0.363-0.434-0.271-0.43c0.052,0.061,0.078,0.082,0.124,0.159
									c-0.077-0.152,0.002-0.166,0.066-0.188c0.034-0.012,0.067-0.026,0.097-0.063c0.015-0.019,0.03-0.043,0.045-0.076
									c0.041-0.037,0.08-0.082,0.113-0.137c0.028,0.032,0.045,0.064,0.055,0.094c-0.078-0.194-0.113-0.397-0.121-0.543
									c0.155-0.028,0.256-0.291,0.349-0.037c-0.097,0.005-0.091,0.111-0.125,0.2l0.149-0.136c0.196,0.357-0.206,0.159-0.169,0.438
									c0.303-0.164,0.633-0.524,0.892-0.45c0.099,0.362-0.555,0.199-0.186,0.483l-0.396-0.091c0.365,0.543-0.235-0.01,0.112,0.577
									c0.512,0.042,0.532-0.26,1.042-0.219c0.084-0.219-0.077-0.297,0.008-0.517c0.656-0.46,0.677,0.853,1.13,0.294
									c0.102-0.263,0.093-0.735,0.495-0.538l-0.071,0.433c0.487-0.022,0.196-0.635,0.737-0.42c-0.067,0.175-0.36,0.188-0.28,0.228
									c0.369,0.285,0.2-0.267,0.451-0.299l0.101,0.361c0.505-0.125,1.034-0.465,1.594-0.608c-0.018,0.114-0.1,0.243,0.048,0.337
									c0.692-0.278,1.535-0.155,2.254-0.028l0.222-0.353c0.062-0.005,0.133,0.128,0.075,0.199c0.285,0.085-0.013-0.204,0.1-0.346
									c0.15-0.042,0.227,0.157,0.142,0.265c0.439-0.333,1.277-0.759,1.822-0.484l-0.084,0.107c0.406,0.078,0.354-0.71,0.754-0.46
									l-0.062,0.066c0.315,0.01,0.634-0.039,0.947-0.086c0.157-0.021,0.312-0.042,0.463-0.062c0.129-0.012,0.355-0.029,0.38-0.004
									c0.022,0.021,0.144,0.049,0.241,0.089c0.098,0.04,0.192,0.091,0.28,0.157c0.124-0.462,0.845,0.207,0.9-0.438
									c0.21,0.138,0.303,0.237,0.4,0.323c0.048,0.043,0.098,0.083,0.163,0.122c0.063,0.039,0.173,0.078,0.169,0.12
									c0.011,0.028-0.008,0.054,0.11,0.099c0.177,0.054,0.322-0.364,0.556-0.401l-0.038,0.335l0.351-0.311l0.11,0.421l0.221-0.058
									c-0.08-0.031-0.158-0.174-0.133-0.268c0.35-0.108,0.771,0.338,0.758,0.51l0.815-0.18c-0.035,0.132-0.171,0.161-0.286,0.233
									c0.461-0.287,0.029,0.362,0.451,0.1c-0.041-0.083,0.054-0.196,0.071-0.262c0.164,0.227,0.596,0.286,0.926,0.242
									l-0.091,0.222c0.569,0.135,1.231,0.049,1.879,0.139c-0.218-0.138-0.112-0.53,0.083-0.543l0.03,0.362
									c0.15-0.201-0.182-0.159,0.105-0.393c0.236,0.072,0.109,0.423-0.045,0.52l0.311-0.084c0.004,0.108-0.072,0.154-0.108,0.287
									c0.15-0.204,0.462,0.421,0.686,0.063l0.003,0.107c0.647,0.088,0.958,0.005,1.487,0.057c0.051-0.304,0.248-0.209,0.438-0.434
									c0.376,0.148,0.774,0.444,1.245,0.479c0.349-0.109,0.13-0.245,0.301-0.407c-0.012,0.281,0.458,0.316,0.19,0.484
									c0.566,0.028,0.724,0.038,1.462-0.095c-0.062-0.124-0.143-0.185-0.085-0.273c0.135-0.028,0.278,0.155,0.241,0.286
									l-0.037,0.024c0.213-0.078,0.428-0.051,0.641,0.025c0.104,0.038,0.221,0.09,0.311,0.144
									c0.036,0.047,0.063,0.098,0.081,0.146c0.09,0.197-0.063,0.342,0.297,0.095l-0.037,0.024
									c0.097-0.051,0.251-0.125,0.268-0.092c0.061-0.023,0.119-0.04,0.176-0.051c-0.081,0.144-0.231,0.09-0.45,0.283
									c0.252-0.077,0.203,0.072,0.15,0.149c-0.026,0.044-0.058,0.082-0.063,0.119c-0.007,0.043,0.019,0.04,0.062,0.247
									c-0.902,0.328-0.21,1.653-0.805,2.21l0.197-0.012c0.17,0.185-0.134,0.183-0.193,0.298c0.152,0,0.195-0.156,0.288-0.042
									c0.069,1.396-0.56,2.815-0.778,4.25c-0.068,0.523,0.998,0.319,0.521,0.964l-0.358-0.19c0.209,0.529,0.205,1.063,0.203,1.599
									c0,0.268-0.003,0.534,0.024,0.798c0.013,0.131,0.031,0.262,0.061,0.392c0.015,0.055,0.034,0.149,0.052,0.171l0.063,0.057
									c-0.085-0.024-0.193-0.026-0.193-0.046c-0.25,0.026-0.019,0.104,0.157,0.229c-0.049,0.04-0.184-0.068-0.293-0.095
									c-0.199,0.047,0.065,0.569-0.208,0.517c-0.045-0.007-0.045-0.09-0.046-0.13c0.049,0.173-0.328,0.473-0.01,0.534
									c-0.303,0.208-0.253,0.623-0.562,0.741c0.166,0.35-0.483,0.367-0.146,0.709c-0.37-0.324-0.688,0.208-0.666,0.524
									c-0.063-0.153-0.242,0.036-0.338-0.166c-0.157,0.184-0.249,0.407-0.037,0.555c-0.729-0.098-0.34,0.994-1.043,0.599
									c-0.372,0.677-0.825,1.233-1.336,1.687c-0.238-0.424,0.593-0.446,0.272-0.859c-0.383,0.513-0.485,1.073-1.101,1.267
									c-0.175,0.015-0.018-0.233-0.012-0.332c-0.458,0.477-1.086,0.48-1.511,0.915c-0.014-0.044,0.025-0.111,0.065-0.165
									c-0.097,0.052-0.261,0.016-0.177,0.223l0.08-0.092c0.283,0.248-0.202,0.787-0.182,0.956
									c-0.002-0.667-0.596,0.003-0.523-0.861c-0.057,0.059-0.116,0.186-0.063,0.325c-0.115-0.013-0.168-0.091-0.107-0.282
									c-0.345,0.211-0.158,0.412-0.512,0.482c-0.021-0.106,0.042-0.162,0.051-0.294c-0.129,0.242-0.276,0.488-0.595,0.444
									c0.009-0.068-0.038-0.146,0.051-0.159c-0.497,0.108-0.837,0.675-1.441,0.485c0.161-0.474-0.201-0.152-0.23-0.562
									l-0.306,0.117l0.119,0.201c-0.269-0.012-0.529,0.271-0.759,0.118l0.216-0.152l-0.517,0.031l0.276,0.184
									c-0.301,0.182-0.016,0.52-0.384,0.365c0.082-0.029-0.288-0.038-0.396-0.299l0.001-0.001
									c-0.156,0.107-0.326,0.219-0.516,0.08c-0.029-0.138,0.127-0.436,0.108-0.527c-0.199,0.313-0.65-0.039-0.906,0.268
									c0.079-0.068,0.133-0.275,0.125-0.322l-0.18,0.239c-0.104-0.119-0.111-0.165-0.045-0.325
									c-0.36-0.152-0.019,0.535-0.407,0.191c0.042-0.012,0.037-0.056,0.122-0.075c-0.411-0.24-0.919-0.106-1.276-0.393
									c0.032-0.428,0.385,0.039,0.373-0.337c-0.585-0.138-1.367-0.028-1.866-0.393l0.08,0.092
									c-0.34,0.479-0.271-0.459-0.663-0.365c0.086-0.001,0.241-0.234,0.191-0.188c-0.312-0.278-0.797-0.285-1.429-0.475
									l0.146-0.083c-0.133-0.244-0.496-0.415-0.671-0.624c-0.149,0.078-0.26-0.029-0.31,0.201
									c-0.159-1.152-1.538-0.579-1.657-1.603c0.068,0.055,0.242,0.033,0.189-0.011l-0.559-0.297
									c-0.128,0.224-0.039,0.169-0.067,0.403c-0.158,0.062-0.369,0.034-0.486-0.07c0.323,0.062,0.265-0.308,0.269-0.492
									c-0.036,0.072-0.124,0.108-0.168,0.174c0.056-0.552-0.381,0.343-0.511-0.184l0.107-0.082
									c-0.169-0.063-0.401-0.04-0.509-0.192c0.146-0.264,0.225,0.022,0.396-0.146c-0.195-0.157-0.745,0.058-0.709-0.312
									c0.134,0.017,0.248,0.122,0.381,0.138c0.057-0.42-0.023-0.375-0.117-0.544l0.008,0.019l-0.192-0.408l0.01,0.143
									c-0.762,0.315-0.551-0.356-1.205-0.318c0.629-0.026,0.244-0.14,0.506-0.346c-0.007-0.142-0.046-0.331,0.054-0.362
									c-0.333,0.039-0.073-0.385-0.551-0.326c0.069-0.08-0.137-0.164,0.091-0.311c-0.235-0.136-0.096,0.17-0.209,0.244
									c-0.543-0.055-0.299-0.992-1.051-1.103c-0.48-0.246-0.815-0.088-1.253-0.337c0.032-0.23,0.382-0.146,0.382-0.146
									c-0.04-0.296-0.181-0.425-0.427-0.534c0.103-0.021,0.133-0.109,0.181-0.241c-0.141-0.132-0.383,0.142-0.417-0.154
									c0.12-0.039,0.304-0.114,0.455-0.116c-0.217-0.113-0.51-0.167-0.73-0.293c0.109-0.163,0.31-0.062,0.455-0.072
									c-0.227-0.153-0.547-0.433-0.831-0.32l0.02,0.198c-0.07-0.067,0.17-0.192,0.256-0.169c0.319,0.038,0.117,0.319,0.041,0.396
									l-0.156-0.091c-0.39,0.52,0.492,0.471,0.672,0.753l-0.443,0.174l0.51,0.035c-0.046,0.131-0.211,0.33-0.37,0.242
									c-0.022,0.331,0.261,0.065,0.199,0.387c-0.016,0.042-0.039,0.048-0.067,0.043l0.256,0.098
									c-0.104,0.025-0.223,0.234-0.266,0.08c0.072,0.499,0.704,0.313,0.545,0.657l-0.045-0.01
									c0.502,0.354,0.292-0.171,0.877-0.091l-0.426,0.767l0.29-0.177c0.032,0.054,0.093,0.161-0.022,0.232
									c0.322,0.02,0.083-0.125,0.332-0.17c-0.033,0.425,0.646,0.506,0.3,0.914c0.259-0.096-0.047-0.34,0.296-0.229
									c-0.359,0.456,0.317,0.2,0.312,0.573c-0.271,0.145-0.334-0.151-0.339,0.228c0.472-0.226,0.287,0.457,0.518,0.556
									c0.29-0.271,0.467,0.236,0.834,0.408c-0.111,0.08,0.369,0.657,0.54,1.005l-0.053,0.041c0.322-0.248,0.544,0.054,0.801,0.168
									c-0.166,0.174-0.265,0.213-0.446,0.196l0.192,0.168c0.13-0.058,0.235-0.058,0.389,0.015l-0.244,0.187
									c0.27,0.211,0.748,0.169,0.961,0.598c0.191-0.206,0.222-0.819,0.689-0.688c-0.081,0.128-0.228,0.343-0.36,0.317
									c0.043,0.009,0.188-0.013,0.208,0.086l-0.3,0.088c0.086,0.21,0.212-0.104,0.321,0.012c-0.136,0.169-0.002,0.192-0.125,0.314
									c-0.045-0.008-0.054-0.154-0.153-0.125c0.115,0.142,0.21,0.372,0.169,0.547c0.062-0.107,0.175-0.23,0.297-0.176
									c0.281,0.189-0.062,0.278,0.032,0.486c0.155-0.072,0.243,0.182,0.435-0.078c0.08,0.059,0.007,0.192-0.011,0.286
									c0.226-0.014,0.706,0.433,0.732,0.035l-0.024-0.043c0.01-0.001,0.019,0.004,0.032,0.004l-0.002-0.001l0.002,0.001
									c0.646,0.047,0.903,0.797,1.476,0.957l-0.054,0.095c0.357,0.06,0.706,0.297,1.027,0.195
									c0.089,0.043,0.126,0.281,0.032,0.378c0.274,0.039,0.346-0.058,0.621,0.258c-0.318,0.065,0.017,0.19-0.305,0.016
									c0.275,0.225,0.285,0.419,0.74,0.284c-0.222,0.209,0.115,0.422,0.301,0.401l-0.157-0.271
									c0.187,0.027,0.329,0.108,0.477,0.185l-0.207,0.313c0.562,0.67,1.446-0.324,1.792,0.517
									c0.242-0.203-0.341-0.266-0.104-0.515c0.298,0.126,0.534,0.704,0.642,0.727c0.427,0.281,0.513-0.448,0.958-0.249
									c-0.045-0.135-0.051-0.485,0.299-0.567c0.307,0.078,0.348,0.579,0.129,0.664c-0.08,0.003-0.114-0.042-0.106-0.085
									c-0.11,0.038-0.259,0.075-0.142,0.23l0.057-0.124c0.15,0.15,0.615,0.171,0.493,0.374c0.266-0.108,0.12-0.203-0.061-0.285
									c0.421,0.217,0.671,0.042,1.117,0.165c-0.072-0.071-0.138-0.223-0.067-0.222c0.65,0.146,0.277-0.251,0.702-0.329
									c0.258,0.178-0.056,0.479,0.371,0.277c0.282,0.107,0.093,0.337-0.01,0.453c0.385-0.286,0.791,0.073,1.043,0.077
									l-0.204,0.139c0.123-0.083,0.231-0.098,0.342-0.117l-0.17-0.234c0.135,0.023,0.242,0.003,0.26,0.109
									c0.099-0.191-0.176-0.404,0.03-0.683c0.191,0.099,0.457-0.244,0.595,0.074c-0.542,0.009,0.14,0.325-0.293,0.481
									c0.078-0.061,0.184-0.081,0.32-0.067c0.027,0.032-0.001,0.073-0.031,0.101c0.585,0.17,0.14-0.433,0.646-0.569
									c-0.01,0.207,0.226,0.316,0.298,0.25c-0.21,0.061-0.192-0.278-0.056-0.479c0.366,0.037,0.307-0.225,0.474-0.267h-0.21
									c-0.002-0.204,0.159-0.235,0.347-0.375c0.074,0.134-0.154,0.172-0.054,0.204c0.104-0.406,0.669,0.112,0.903-0.252
									c0.207,0.048,0.171,0.324,0.343,0.339c0.254-0.405,0.523,0.038,0.808-0.355c-0.237-0.168-0.219-0.102-0.087-0.47
									c0,0-0.129,0.125-0.258,0.25c-0.134,0.122-0.267,0.244-0.267,0.244l0.214-0.544c-0.181,0.097-0.309,0.351-0.44,0.367
									c0.092-0.285,0.099-0.216-0.086-0.365c0.433,0.22,0.377-0.455,0.779-0.388l0.32,0.562c0.59-0.018,0.582-0.748,1.187-0.991
									l-0.232,0.031c-0.081-0.257,0.296-0.262,0.396-0.472c0.117,0.183,0.268,0.164,0.422,0.212
									c-0.109-0.116,0.379-0.29,0.14-0.657l0.401,0.026c0.467-0.266,0.015-0.846,0.403-1.132c0.063,0.27,0.331,0.218,0.215,0.571
									c0.12-0.115,0.253-0.195,0.147-0.301c0.168,0.023,0.104-0.53,0.354-0.503c-0.024-0.116-0.177-0.282-0.045-0.406
									c0.047,0.014,0.08,0.07,0.08,0.07c-0.078-0.07,0.076-0.31-0.207-0.346c0.847,0.058,0.82-1.096,1.529-1.122
									c0.144-0.336,0.313-0.735,0.462-1.022c0.045,0.05,0.092,0.056,0.042,0.097c0.405-0.305-0.415-0.51,0.046-0.9
									c0.473-0.157,0.022,0.367,0.235,0.242c0.341,0.117,0.431-0.113,0.49-0.372c0.005-0.272-0.165-0.595,0.049-0.821
									c0-0.014,0.047,0.104,0.047,0.106c0.225-0.317-0.295-0.6-0.257-1.019c0,0,0.063,0.019,0.107,0
									c-0.37-0.264-0.498-0.785-0.599-1.175c0.278,0.121,0.147,0.177,0.43,0.103c-0.041-0.173-0.454,0.053-0.532-0.297
									c0.153-0.113,0.287-0.362,0.589-0.392l0.015,0.326c0.391-0.164-0.011-0.42,0.062-0.592l0.17,0.025
									c-0.046-0.496-0.473-0.516-0.423-1.054l-0.132,0.051c-0.412-0.313,0.249-0.236-0.053-0.545l0.436-0.065
									c-0.094-0.198-0.378-0.702-0.433-1.059c0.306,0.222,0.44,0.637,0.617,0.897c0.013-0.19,0.01-0.648-0.196-0.764
									c0.036,0.08,0.136,0.185,0.064,0.256c-0.324-0.257-0.467-0.582-0.427-0.966c0.826,0.142,0.302-0.978,0.984-1.18
									c-0.231-0.704,0.296-1.301,0.37-2.07c-0.688,0.167,0.019-0.227-0.647-0.291c-0.013-0.188,0.011-0.255,0.057-0.264
									c0.004-0.022,0.112-0.07,0.255-0.288c0.142-0.206,0.283-0.413,0.283-0.413c0.243-0.225,0.094,0.279,0.252,0.262
									c0.194-0.707,0.347-0.298,0.647-0.847c-0.274,0.142-0.313-0.183-0.099-0.645l-0.479,0.676
									c-0.086-0.422,0.119-0.65,0.338-0.951c0.216-0.283,0.454-0.646,0.37-1.029c0.002-0.007,0.175,0.166,0.173,0.172
									c0-0.088,0.017-0.215,0.044-0.367c-0.704-0.051-1.829-0.196-2.455,0.161c-0.036-0.083-0.065-0.271,0.192-0.286
									c-0.303-0.06-0.652-0.08-0.994-0.08c-0.159,0.002-0.367,0.002-0.479,0.016l-0.291,0.049
									c-0.384,0.062-0.744,0.096-0.994-0.104l0.074-0.155c-0.137,0.03-0.268,0.274-0.409,0.09
									c0.018-0.065,0.074-0.155,0.015-0.172c-0.076,0.047-0.384,0.239-0.544,0.121l0.171-0.163
									c-0.653-0.302-1.104,0.307-1.689,0.343c0.063-0.477-0.452-0.703-0.71-0.815l0.018-0.066
									c-0.786-0.163-1.399,0.218-2.159,0.309c-0.389-0.578-1.518-0.42-2.213-0.807c0.102,0.102-0.066,0.369-0.203,0.4
									c-0.16-0.119-0.52,0.269-0.435-0.166l0.06,0.017c-0.072-0.446-0.441-0.378-0.716-0.426l-0.121,0.566
									c-0.613-0.928-1.933,0.057-2.229-0.741c-0.219,0.117-0.35,0.098-0.658,0.203l0.039-0.307
									c-0.02-0.005-0.039-0.009-0.051-0.012c-0.246-0.019-0.304-0.035-0.41-0.048c-0.098-0.013-0.191-0.022-0.288-0.026
									c-0.193-0.009-0.402,0-0.696,0.036l0.123-0.222c-0.339-0.021-0.428,0.893-0.741,0.911l-0.095-0.462
									c-0.093,0.001-0.179-0.009-0.372-0.024c-0.25,0.013-0.319-0.007-0.46-0.016c-0.126-0.011-0.253-0.019-0.378-0.014
									c-0.249,0.01-0.49,0.073-0.71,0.279c0.001-0.069,0.001-0.204,0.093-0.234c-0.278,0.024-1.111-0.17-0.927,0.446
									c-0.061-0.409-0.611,0.039-0.905,0.261l0.009-0.309c-0.217,0.422-0.212,0.528-0.571,0.684
									c-0.094-0.028-0.11-0.231,0.019-0.17c-0.316-0.119-0.193,0.316-0.572,0.203l0.108-0.21
									c-0.307,0.017-0.269,0.117-0.407,0.364c-0.175,0.147-0.586,0-0.667-0.268c-0.019,0.172-0.156,0.417-0.346,0.362
									c-0.038-0.1,0.019-0.173,0.048-0.208c-0.535-0.139-0.709,0.451-1.097,0.2c-0.021-0.099-0.05-0.146-0.083-0.172
									c0.405-0.046,0.732-0.072,0.705-0.046c-0.037-0.278-0.369-0.285-0.16-0.704c-0.234,0.244-0.622,0.759-0.957,0.67
									c-0.019-0.025-0.038-0.049-0.055-0.091l0.028-0.036c-0.076-0.018-0.139,0.016-0.194,0.071
									c-0.108-0.033-0.176-0.058-0.275-0.049c-0.067-0.225-0.39-0.075-0.554-0.064c0.054,0.303-0.166,0.282,0.067,0.508
									c-0.029-0.019,0.026-0.042,0.132-0.068c0.023-0.012,0.052-0.02,0.065-0.04l-0.008,0.028c0.106-0.02,0.245-0.045,0.402-0.074
									c-0.108,0.172-0.225,0.32-0.428,0.174c-0.058,0.207-0.123,0.42-0.162,0.521c-0.278-0.396-0.737-0.569-0.831-0.824
									c-0.474,0.236-1.155,0.267-1.391,0.88c-0.132,0.092-0.184-0.143-0.249-0.226c0.074-0.068,0.172-0.072,0.206-0.16
									c-0.263,0.184-0.829,0.167-0.844,0.576c-0.379-0.134,0.152-0.395-0.328-0.265l0.05-0.131
									c-1.084-0.508-1.237,1.202-3.09,0.61c0.145,0.032,0.211,0.047,0.281,0.106c-0.419-0.018-0.898-0.02-1.227,0.076
									c0.167,0.668,0.425,1.375,0.569,1.994c0.036,0.157,0.069,0.313,0.094,0.47c0.019,0.121,0.03,0.236,0.034,0.355
									c0.007,0.237-0.019,0.477-0.094,0.719c-0.064,0.35,0.195,0.349,0.418,0.527l-0.317,0.118l0.425,0.3
									c0.341,0.471-0.698,0.957-0.111,1.529l0.214-0.104c-0.019,0.231,0.197,0.711-0.062,0.694
									c0.042,0.02,0.237,0.056,0.128,0.154l-0.172,0.021l0.337,0.538c-0.097,0.443-0.686-0.021-0.683,0.609
									c0.081,0.228,0.536,0.641,0.648,0.549c0.004-0.096,0.096-0.249,0.268-0.266l0.101,0.214c0.511,0.015,1.04,0.168,1.368-0.399
									l-0.332-0.364l0.239-0.139l0.034,0.321c0.222-0.196,0.01-0.301-0.14-0.421c0.129-0.039,0.217-0.099,0.261-0.179l-0.512-0.34
									c0.195-0.061,0.407,0.14,0.498-0.122c-0.239-0.158-0.433,0.202-0.603-0.075c0.215-0.2,0.408-0.164,0.193-0.36
									c0.128-0.041,0.215-0.003,0.28,0.077c-0.172-0.178-0.112-0.5-0.391-0.572c0.266-0.218-0.14-0.633,0.341-0.666
									c-0.121-0.048-0.415-0.294-0.455-0.464c0.613,0.249-0.048-0.657,0.574-0.654c-0.545-0.168-0.348-0.826-0.701-1.198
									c0.044,0.017,0.134,0.049,0.114,0.09c0.005-0.242,0.147-0.335,0.218-0.504c-0.428,0.037-0.591-0.326-0.866-0.351
									c0.396-0.133,0.521,0.051,0.909-0.034c-0.344,0.052-0.371-0.098-0.668-0.113c0.252-0.041,0.114-0.057,0.49,0.013
									c-0.581-0.18-0.105-0.067-0.483-0.275c0.272,0.029,0.565,0.27,0.358,0.083C85.737,97.865,85.967,98.036,85.964,98.024z
									 M91.759,96.324l0.001,0.006c-0.069,0.016-0.128,0.03-0.166,0.039C91.628,96.359,91.676,96.346,91.759,96.324z
									 M92.441,96.229c-0.084-0.001-0.188,0.01-0.298,0.027c-0.038-0.102-0.026-0.214,0.043-0.217
									C92.159,96.114,92.328,96.153,92.441,96.229z M90.719,94.307c0.103-0.058,0.146-0.002,0.169,0.058
									c-0.05,0.012-0.108,0.03-0.184,0.062l-0.008,0.039C90.699,94.405,90.704,94.35,90.719,94.307z"/>
								<path fill="#DB9464" d="M90.577,94.731c-0.015,0.01-0.021,0.023-0.042,0.028c0.026,0.024,0.05,0.044,0.073,0.061
									l0.026-0.101L90.577,94.731z"/>
								<path fill="#DB9464" d="M94.207,114.56l0.008,0.015c-0.003-0.017-0.006-0.034-0.001-0.054
									C94.213,114.538,94.208,114.547,94.207,114.56z"/>
								<polygon fill="#DB9464" points="101.604,96.061 101.613,95.983 101.545,96.043 								"/>
								<path fill="#DB9464" d="M91.865,111.404c0.013-0.024,0.021-0.055,0.016-0.09C91.869,111.33,91.866,111.365,91.865,111.404z"
									/>
								<path fill="#DB9464" d="M90.735,110.257l-0.085-0.237C90.676,110.133,90.707,110.204,90.735,110.257z"/>
								<path fill="#DB9464" d="M89.973,109.272c-0.049,0.025-0.082,0.051-0.112,0.073l0,0.003L89.973,109.272z"/>
								<path fill="#DB9464" d="M106.696,115.278c0.014-0.007,0.026-0.017,0.036-0.028
									C106.808,115.157,106.751,115.204,106.696,115.278z"/>
								<path fill="#DB9464" d="M101.299,116.509c0.068-0.046,0.135-0.093,0.202-0.119
									C101.404,116.353,101.328,116.337,101.299,116.509z"/>
								<polygon fill="#DB9464" points="111.395,111.608 111.397,111.613 111.423,111.585 								"/>
								<path fill="#DB9464" d="M101.763,116.428c-0.094-0.072-0.179-0.068-0.262-0.038
									C101.58,116.423,101.674,116.465,101.763,116.428z"/>
								<path fill="#DB9464" d="M86.604,105.101l-0.026-0.055c-0.016,0.013-0.031,0.021-0.044,0.024L86.604,105.101z"/>
								<path fill="#DB9464" d="M86.533,105.07l-0.069-0.031C86.483,105.063,86.501,105.083,86.533,105.07z"/>
								<path fill="#DB9464" d="M86.318,104.975l0.146,0.064C86.436,105.001,86.407,104.947,86.318,104.975z"/>
								<path fill="#DB9464" d="M87.509,106.478l0.098-0.056C87.583,106.429,87.551,106.446,87.509,106.478z"/>
								<path fill="#DB9464" d="M87.851,106.843c-0.057-0.108-0.008-0.381-0.165-0.465l-0.079,0.044
									C87.784,106.378,87.633,106.875,87.851,106.843z"/>
								<path fill="#DB9464" d="M88.192,109.339l-0.221-0.379c-0.039,0.135-0.092,0.316-0.243,0.188
									C87.827,109.79,87.85,108.889,88.192,109.339z"/>
								<path fill="#DB9464" d="M88.979,110.433c-0.201-0.129-0.122,0.121-0.178,0.159
									C88.982,110.623,89.026,110.629,88.979,110.433z"/>
								<path fill="#DB9464" d="M96.738,116.287l-0.142,0.242C96.782,116.571,96.645,116.432,96.738,116.287z"/>
								<polygon fill="#DB9464" points="98.964,115.64 98.87,115.421 98.709,115.637 								"/>
								<polygon fill="#DB9464" points="99.427,117.864 99.336,117.881 99.67,117.863 								"/>
								<path fill="#DB9464" d="M114.64,111.891l-0.313-0.156C114.304,111.871,114.6,112.123,114.64,111.891z"/>
								<path fill="#DB9464" d="M115.715,104.701c0.175-0.068,0.294-0.252,0.131-0.377
									C115.814,104.475,115.674,104.621,115.715,104.701z"/>
								<polygon fill="#DB9464" points="103.778,93.559 103.932,93.463 103.659,93.524 								"/>
							</g>
						</g>
					</g>
				</g>
			</g>
		</g>
		<path fill="#EAA271" d="M136.596,34.885c0.229,0.666,7.397,46.119-9.286,62.961c-16.685,16.842-45.542,6.873-52.572-10.389
			c-6.068-14.898-7.241-42.971,4.564-60.128C91.107,10.173,124.948,0.729,136.596,34.885z"/>
		<g>
			<g>
				<path fill="#D6854D" d="M114.925,47.255c-0.492,5.442-0.985,10.884-1.478,16.326c-0.251,2.765-0.501,5.53-0.751,8.295
					c-0.158,1.742-2.484,1.291-4.722,1.728c-0.519,0.102-0.298,0.892,0.219,0.791c1.639-0.32,3.277-0.64,4.917-0.96
					c0.188-0.037,0.285-0.223,0.301-0.396c0.778-8.595,1.556-17.189,2.334-25.784C115.793,46.729,114.972,46.733,114.925,47.255
					L114.925,47.255z"/>
			</g>
		</g>
		
			<ellipse transform="matrix(0.999 -0.0439 0.0439 0.999 -2.615 4.2025)" fill="#010C39" cx="94.428" cy="61.673" rx="1.981" ry="2.833"/>
		
			<ellipse transform="matrix(0.999 -0.0438 0.0438 0.999 -2.6219 5.4024)" fill="#010C39" cx="122.106" cy="62.599" rx="1.981" ry="2.834"/>
		<g>
			<g>
				<path fill="#D6854D" d="M63.261,67.212c3.363,0.224,5.706,3.056,4.871,6.431c-0.549,2.219-3.083,1.964-4.197,0.393
					c-0.75-1.058-0.441-2.182,0.803-2.553c1.095-0.327,2.281,0.171,2.995,1c0.346,0.401,0.923-0.181,0.58-0.58
					c-1.268-1.473-5.449-2.163-5.615,0.669c-0.132,2.257,2.4,4.153,4.519,3.358c2.693-1.011,2.199-5.302,0.843-7.145
					c-1.07-1.454-3.027-2.276-4.798-2.394C62.732,66.357,62.736,67.178,63.261,67.212L63.261,67.212z"/>
			</g>
		</g>
		<g>
			<g>
				<path fill="#D6854D" d="M144.21,68.576c-1.779,0.118-3.594,0.93-4.734,2.311c-1.54,1.864-1.822,5.97,0.681,7.187
					c2.088,1.015,4.473-1.001,4.631-3.077c0.092-1.205-1.053-1.956-2.08-2.171c-1.31-0.274-2.694,0.268-3.55,1.262
					c-0.343,0.399,0.234,0.981,0.58,0.58c1.334-1.55,5.326-1.372,3.919,1.355c-0.902,1.749-3.427,2.03-4.229,0.076
					c-1.389-3.382,1.522-6.486,4.783-6.703C144.735,69.361,144.738,68.541,144.21,68.576L144.21,68.576z"/>
			</g>
		</g>
		<g>
			<defs>
				<path id="SVGID_3_" d="M111.025,78.853c-1.83,0.146-3.646-0.326-5.172-1.348c-2.228-1.493-5.754-3.158-9.078-1.762
					c-5.414,2.273-5.591,14.787,8.702,15.758c13.517,0.919,12.44-9.254,10.687-11.617C114.979,78.288,112.637,78.725,111.025,78.853
					z"/>
			</defs>
			<clipPath id="SVGID_4_">
				<use xlink:href="#SVGID_3_"  overflow="visible"/>
			</clipPath>
			<path clip-path="url(#SVGID_4_)" fill="#9E3A2D" d="M111.025,78.853c-1.83,0.146-3.646-0.326-5.172-1.348
				c-2.228-1.493-5.754-3.158-9.078-1.762c-5.414,2.273-5.591,14.787,8.702,15.758c13.517,0.919,12.44-9.254,10.687-11.617
				C114.979,78.288,112.637,78.725,111.025,78.853z"/>
			<path clip-path="url(#SVGID_4_)" fill="#FFFFFF" d="M117.655,76.765c0,0,2.744,6.101-5.814,5.383
				c-16.605-1.393-17.438-4.071-15.99-9.369L117.655,76.765z"/>
			<path clip-path="url(#SVGID_4_)" fill="#F4826C" d="M115.766,90.658c0,0-2.708-5.142-10.484-5.982
				c-7.775-0.839-10.854,3-10.854,3S100.759,96.639,115.766,90.658z"/>
		</g>
		<g>
			<ellipse fill="#F4826C" cx="126.066" cy="78.164" rx="6.139" ry="4.958"/>
		</g>
		<g>
			<ellipse fill="#F4826C" cx="84.932" cy="75.218" rx="6.139" ry="4.958"/>
		</g>
		<ellipse fill="#EAA16E" cx="104.222" cy="93.741" rx="1.495" ry="0.695"/>
		<path fill="#E64054" d="M88.524,48.396c0.269,1.409,2.933,0.707,6.263,0.071c3.33-0.636,6.065-0.966,5.795-2.375
			c-0.27-1.409-3.187-2.035-6.517-1.399C90.736,45.329,88.255,46.987,88.524,48.396z"/>
		<path fill="#E64054" d="M119.519,47.48c-0.275,1.408,2.458,1.75,5.785,2.401c3.327,0.651,5.987,1.365,6.264-0.042
			c0.275-1.407-2.199-3.077-5.525-3.728C122.715,45.459,119.794,46.072,119.519,47.48z"/>
		<path fill="#B5D7D9" d="M139.481,139.977c-7.82-2.438-13.227-6.241-16.938-10.604c-1.708,1.223-3.533,2.312-5.485,3.242
			c-12.224,6.11-28.178,3.81-38.878-4.324c-3.719,4.813-9.357,9.049-17.818,11.686C28.041,150.051,20.695,160.125,18.177,200h80.59
			h2.308h80.591C179.147,160.125,171.802,150.051,139.481,139.977z"/>
		<path fill="#87C4C4" d="M99.482,147.241c4.062,9.14,14.384,13.153,23.522,9.092c12.186-5.077,4.91-17.215-0.167-26.354
			c-0.075-0.149-0.117-0.313-0.171-0.471c-0.04-0.046-0.085-0.089-0.124-0.136c-1.708,1.223-3.533,2.312-5.485,3.242
			c-12.224,6.11-28.178,3.81-38.878-4.324c-1.385,1.793-3.038,3.505-5.001,5.084c-0.713,1.576-1.367,3.134-1.906,4.684
			c-4.107,11.813,6.951,23.667,18.786,19.622C94.082,156.306,97.666,153.158,99.482,147.241z"/>
		<path fill="#87C4C4" d="M21.808,173.115c-1.863,7.103-2.934,15.849-3.631,26.885h80.59h2.308h80.591
			c-0.884-13.993-2.368-24.307-5.312-32.247c-14.547,11.353-32.581,19.212-48.439,24.168
			C93.417,202.764,50.311,200.207,21.808,173.115z"/>
		<path fill="#FFFFFF" d="M122.543,129.373c0,0-20.119,14.41-44.363-1.082c0,0-14.25,15.253-1.579,22.914
			c13.537,8.186,23.32-12.906,23.32-12.906s4.688,20.157,20.007,13.852C134.84,146.011,122.543,129.373,122.543,129.373z"/>
		<path fill="#E64054" d="M87.251,16.574c0,0,7.167,14.481,34.854,18.889c27.688,4.407,26.638,15.189,26.638,15.189
			S134.263-13.647,87.251,16.574z"/>
		<path fill="#E64054" d="M90.014,14.885c0,0,5.377,28.186-19.758,40.147C70.256,55.032,60.142,30.3,90.014,14.885z"/>
	</g>
	<path display="inline" fill="#E8F5F9" d="M133.564,77.487c0,0-5.814,1.043-12.528-2.791c-5.701-5.22-13.468-5.455-13.47-5.454
		c-0.002-0.001-7.801-1.418-14.327,2.427c-6.528,3.846-17.193,3.947-17.193,3.947l-1.774,11.982l4.755,7.119
		c0,0,7.741,14.188,24.026,15.961l0,0l0,0c0.001,0,0.001,0,0.001,0l0,0c16.284,1.773,24.159-9.218,26.127-11.624
		c1.966-2.406,3.948-9.217,3.948-9.217L133.564,77.487z"/>
	<path display="inline" fill="#AFB2BF" d="M124.092,79.71c-2.204-1.311-3.945-3.012-6.018-4.44
		c-2.433-1.676-5.206-3.013-8.295-3.553c-0.048-0.017-0.101-0.031-0.159-0.037c-0.072-0.009-0.144-0.014-0.215-0.022
		c-0.072-0.012-0.143-0.024-0.214-0.034c-0.061-0.008-0.113-0.008-0.164-0.004c-3.123-0.264-6.146,0.323-8.926,1.324
		c-2.367,0.853-4.482,2.055-6.949,2.761c-0.695,0.198-0.214,1.076,0.48,0.877c2.244-0.642,4.202-1.678,6.314-2.518
		c2.858-1.136,6.055-1.822,9.337-1.476c3.265,0.502,6.182,1.979,8.654,3.805c1.831,1.35,3.459,2.851,5.465,4.042
		C124.024,80.806,124.714,80.079,124.092,79.71z"/>
	<g display="inline" opacity="0.6">
		<g>
			<path fill="#CEE8EF" d="M95.559,80.32c6.163,3.563,14.589,4.229,21.348,2.325c1.748-0.492,0.496-2.661-1.247-2.171
				c-4.186,1.178-8.76,1.166-13.094,0.031c-1.377-0.36-2.715-0.832-3.998-1.384c-0.09-0.039-0.18-0.078-0.268-0.118
				c-0.409-0.182,0.232,0.112-0.133-0.061c-0.178-0.083-0.355-0.172-0.53-0.261c-0.131-0.068-0.266-0.138-0.394-0.212
				C95.681,77.565,93.996,79.418,95.559,80.32L95.559,80.32z"/>
		</g>
		<g>
			<path fill="#CEE8EF" d="M83.002,83.451c3.931,2.279,8.62,3.892,13.149,5.085c10.205,2.688,20.959,2.822,30.917,0.263
				c0.479-0.124,0.952-0.257,1.428-0.393c1.744-0.499,0.494-2.67-1.248-2.171c-9.585,2.741-20.133,2.719-30.08,0.139
				c-3.2-0.831-6.32-1.91-9.295-3.207c-0.625-0.273-0.764-0.339-1.221-0.557c-0.355-0.168-0.705-0.343-1.052-0.521
				c-0.308-0.158-0.615-0.318-0.913-0.489C83.126,80.693,81.442,82.546,83.002,83.451L83.002,83.451z"/>
		</g>
		<g>
			<path fill="#CEE8EF" d="M82.241,90.441c3.931,2.28,8.62,3.892,13.149,5.084c10.205,2.689,20.96,2.823,30.917,0.264
				c0.478-0.124,0.954-0.258,1.428-0.393c1.745-0.499,0.492-2.67-1.247-2.171c-9.586,2.741-20.134,2.718-30.081,0.14
				c-3.2-0.831-6.319-1.911-9.294-3.209c-0.625-0.272-0.765-0.338-1.222-0.556c-0.354-0.17-0.705-0.343-1.053-0.522
				c-0.307-0.157-0.615-0.317-0.912-0.489C82.365,87.683,80.681,89.535,82.241,90.441L82.241,90.441z"/>
		</g>
		<g>
			<path fill="#CEE8EF" d="M86.52,98.922c3.134,1.796,6.859,3.058,10.465,3.978c8.214,2.097,16.826,2.074,24.743-0.143
				c1.75-0.489,0.497-2.66-1.247-2.171c-7.249,2.03-15.207,2.008-22.721,0.089c-2.438-0.623-4.815-1.435-7.087-2.409
				c-0.176-0.078-0.353-0.155-0.528-0.232c-0.081-0.036-0.164-0.073-0.245-0.111c-0.388-0.174,0.246,0.117-0.116-0.052
				c-0.299-0.141-0.595-0.287-0.889-0.434c-0.232-0.119-0.465-0.238-0.69-0.367C86.638,96.172,84.954,98.024,86.52,98.922
				L86.52,98.922z"/>
		</g>
	</g>
	<path display="inline" opacity="0.06" fill="#0E0F0F" d="M103.053,110.678C103.054,110.678,103.054,110.678,103.053,110.678
		c5.547,0.604,10.116-0.272,13.812-1.787c-34.411-7.969-20.95-38.502-20.95-38.502l0,0c-0.901,0.344-1.799,0.763-2.675,1.28
		c-6.528,3.846-17.193,3.947-17.193,3.947l-1.774,11.982l3.739,6.103C78.011,93.701,86.768,108.904,103.053,110.678z"/>
	<path display="inline" fill="#E8F5F9" d="M131.499,80.216c0,0,2.178-5.319,6.914-21.188l0.182,2.335c0,0-3.145,12.707-6.507,20.061
		L131.499,80.216z"/>
	<path display="inline" fill="#E8F5F9" d="M128.96,94.755l0.494,1.25c1.664-2.031,3.461-5.281,5.074-8.592l-1.103-0.155
		C130.711,92.508,128.96,94.755,128.96,94.755z"/>
	<path display="inline" fill="#E8F5F9" d="M77.036,77.169c0,0-2.634-5.908-6.7-20.433l-0.611,1.247c0,0,3.555,13.683,6.509,20.264
		L77.036,77.169z"/>
</g>
<g id="圖層_2">
	<g>
		<path fill="#BA1C37" d="M64.788,42.22L46.556,54.413c-5.916,3.957-4.489,13.059,2.369,14.963
			c8.428,2.341,21.229,4.053,40.058,2.691l55.049-28.311C144.032,43.756,93.724,20.924,64.788,42.22z"/>
		<path fill="#CC885A" d="M78.692,69.402c4.002,6.332,4.567,16.538-0.621,19.818c-5.189,3.28-14.167-1.609-18.169-7.941
			c-4.002-6.332-3.041-14.124,2.148-17.404C67.238,60.595,74.689,63.069,78.692,69.402z"/>
		<path fill="#CC885A" d="M129.281,70.948c-4.442,6.033-5.729,16.173-0.787,19.813c4.943,3.64,14.245-0.601,18.687-6.633
			s4.034-13.873-0.907-17.513C141.33,62.976,133.723,64.916,129.281,70.948z"/>
		<g>
			<defs>
				<path id="SVGID_5_" d="M63.366,142.325c31.032-9.672,22.568-41.711,22.568-41.711l14.308-1.745V98.6l1.107,0.135l1.107-0.135
					v0.27l14.309,1.745c0,0-8.464,32.04,22.567,41.711c31.033,9.672,38.085,19.345,40.503,57.631h-77.379h-2.215H22.863
					C25.282,161.67,32.334,151.997,63.366,142.325z"/>
			</defs>
			<clipPath id="SVGID_6_">
				<use xlink:href="#SVGID_5_"  overflow="visible"/>
			</clipPath>
			<path clip-path="url(#SVGID_6_)" fill="#CC885A" d="M63.366,142.325c31.032-9.672,22.568-41.711,22.568-41.711l14.308-1.745V98.6
				l1.107,0.135l1.107-0.135v0.27l14.309,1.745c0,0-8.464,32.04,22.567,41.711c31.033,9.672,38.085,19.345,40.503,57.631h-77.379
				h-2.215H22.863C25.282,161.67,32.334,151.997,63.366,142.325z"/>
			<g clip-path="url(#SVGID_6_)">
				<path fill="#AD683A" d="M86.944,108.211c-0.199-4.526-1.009-7.597-1.009-7.597l14.308-1.745V98.6l1.107,0.135l1.107-0.135v0.27
					l14.309,1.745c0,0-1.382,5.234-0.981,12.109C112.645,119.132,101.35,128.019,86.944,108.211z"/>
				<g>
					<g>
						<g>
							<g>
								<path fill="#B77B53" d="M87.532,107.783c-0.104,0.018-0.261,0.164-0.151,0.241l0.345-0.143L87.532,107.783z"/>
								<path fill="#B77B53" d="M87.497,108.862c0.23,0.014,0.578-0.036,0.786-0.313c-0.366,0.093-0.27-0.022-0.697,0.099
									c-0.109-0.075-0.039-0.245,0.082-0.308c-0.101,0.02-0.052-0.204-0.275-0.125c-0.129,0.299-0.013,0.475,0.303,0.51
									C87.659,108.811,87.557,108.831,87.497,108.862z"/>
								<path fill="#B77B53" d="M95.904,118.031l-0.044-0.081C95.866,117.982,95.882,118.009,95.904,118.031z"/>
								<path fill="#B77B53" d="M103.224,121.017c-0.063,0.003-0.092,0.036-0.098,0.068
									C103.186,121.066,103.234,121.049,103.224,121.017z"/>
								<path fill="#B77B53" d="M104.621,121.466c-0.032-0.009-0.057-0.016-0.085-0.023
									C104.568,121.476,104.602,121.493,104.621,121.466z"/>
								<path fill="#B77B53" d="M95.904,118.031l0.114,0.21C96.096,118.15,95.976,118.109,95.904,118.031z"/>
								<path fill="#B77B53" d="M89.223,109.669c-0.04-0.022-0.088-0.028-0.143-0.026c0.034,0.018,0.065,0.035,0.094,0.057
									L89.223,109.669z"/>
								<path fill="#B77B53" d="M92.972,116.158l-0.049-0.042c-0.042,0.02-0.087,0.045-0.137,0.076L92.972,116.158z"/>
								<path fill="#B77B53" d="M90.995,114.375c0.034,0.052,0.267-0.149,0.378-0.228c-0.113,0.064-0.188,0.076-0.241,0.056
									C91.089,114.244,91.045,114.298,90.995,114.375z"/>
								<path fill="#B77B53" d="M88.617,110.902l-0.08-0.031C88.559,110.88,88.591,110.893,88.617,110.902z"/>
								<path fill="#B77B53" d="M94.417,117.417c-0.024,0.04-0.041,0.077-0.047,0.103C94.393,117.489,94.407,117.454,94.417,117.417
									z"/>
								<path fill="#B77B53" d="M88.147,105.051c-0.022,0.002-0.036,0.004-0.054,0.006
									C88.125,105.069,88.147,105.071,88.147,105.051z"/>
								<polygon fill="#B77B53" points="86.865,108.215 86.846,108.174 86.674,108.173 								"/>
								<path fill="#B77B53" d="M107.321,121.516c-0.006-0.001-0.007-0.002-0.013-0.003
									C107.247,121.563,107.285,121.549,107.321,121.516z"/>
								<path fill="#B77B53" d="M117.616,102.775c-0.315,0.205-0.274-0.473-0.644-0.144
									C117.097,102.62,117.389,103.042,117.616,102.775z"/>
								<path fill="#B77B53" d="M89.232,109.746c0.024,0.024,0.048,0.051,0.068,0.08C89.278,109.782,89.257,109.758,89.232,109.746z
									"/>
								<path fill="#B77B53" d="M116.973,102.632h-0.002l-0.035,0.033C116.95,102.651,116.96,102.644,116.973,102.632z"/>
								<path fill="#B77B53" d="M112.699,118.614c-0.044-0.033-0.088-0.051-0.133-0.065
									C112.588,118.572,112.623,118.594,112.699,118.614z"/>
								<path fill="#B77B53" d="M108.629,120.468l0.117-0.001C108.694,120.456,108.658,120.46,108.629,120.468z"/>
								<path fill="#B77B53" d="M114.076,116.727c0.058-0.027,0.103-0.013,0.126-0.101c-0.018-0.005-0.03-0.007-0.045-0.007
									C114.169,116.668,114.158,116.711,114.076,116.727z"/>
								<polygon fill="#B77B53" points="115.538,114.882 115.462,114.883 115.435,114.953 								"/>
								<path fill="#B77B53" d="M88.187,101.624c-0.06-0.079-0.103-0.17-0.138-0.26C88.112,101.576,87.797,101.696,88.187,101.624z"
									/>
								<path fill="#B77B53" d="M89.088,109.778c0.069-0.039,0.11-0.049,0.144-0.032l-0.058-0.047
									C89.135,109.723,89.1,109.749,89.088,109.778z"/>
								<path fill="#B77B53" d="M112.348,115.023l0.245-0.207C112.512,114.864,112.424,114.939,112.348,115.023z"/>
								<path fill="#B77B53" d="M103.708,100.161l-0.086,0.026C103.652,100.198,103.683,100.192,103.708,100.161z"/>
								<path fill="#B77B53" d="M113.151,114.054c0.12,0.021,0.208,0.01,0.277-0.019c-0.011-0.024-0.019-0.048-0.041-0.076
									L113.151,114.054z"/>
								<path fill="#B77B53" d="M88.048,101.361l0.001,0.003L88.048,101.361z"/>
								<path fill="#B77B53" d="M88.03,102.104c-0.354-0.238-0.51-0.344-0.745-0.501c-0.01-0.015-0.019-0.027-0.024-0.035
									c0.023-0.083,0.413,0.266,0.638,0.425c-0.11-0.093-0.371-0.433-0.281-0.429c0.053,0.061,0.079,0.081,0.127,0.159
									c-0.081-0.151-0.006-0.165,0.055-0.188c0.078-0.024,0.093-0.052,0.195-0.269c0.027,0.032,0.043,0.064,0.053,0.095
									c-0.076-0.194-0.11-0.397-0.119-0.544c0.148-0.027,0.245-0.29,0.335-0.035c-0.093,0.004-0.087,0.111-0.119,0.199
									l0.143-0.135c0.19,0.358-0.198,0.158-0.161,0.436c0.29-0.161,0.606-0.52,0.854-0.445c0.097,0.362-0.532,0.196-0.176,0.482
									l-0.381-0.093c0.354,0.545-0.226-0.012,0.11,0.577c0.492,0.044,0.509-0.258,1-0.214c0.08-0.218-0.076-0.298,0.005-0.517
									c0.628-0.456,0.655,0.856,1.088,0.3c0.097-0.262,0.085-0.734,0.472-0.535l-0.066,0.432c0.468-0.02,0.185-0.633,0.706-0.416
									c-0.064,0.174-0.345,0.186-0.269,0.226c0.356,0.287,0.19-0.265,0.432-0.297l0.099,0.362c0.484-0.123,0.992-0.46,1.528-0.6
									c-0.016,0.114-0.094,0.242,0.048,0.337c0.664-0.274,1.474-0.147,2.166-0.016l0.211-0.351c0.06-0.004,0.128,0.129,0.073,0.2
									c0.274,0.086-0.014-0.204,0.094-0.345c0.144-0.042,0.218,0.157,0.138,0.265c0.421-0.33,1.223-0.752,1.748-0.474
									l-0.081,0.106c0.391,0.08,0.336-0.708,0.723-0.457l-0.059,0.065c0.303,0.011,0.609-0.036,0.91-0.081
									c0.15-0.02,0.299-0.04,0.445-0.059c0.125-0.012,0.338-0.027,0.363-0.002c0.022,0.021,0.134,0.049,0.229,0.089
									c0.094,0.04,0.184,0.091,0.268,0.157c0.119-0.462,0.811,0.206,0.863-0.438c0.201,0.138,0.291,0.237,0.385,0.324
									c0.047,0.043,0.094,0.083,0.156,0.122c0.064,0.039,0.162,0.078,0.158,0.12c0.015,0.029-0.012,0.053,0.102,0.098
									c0.17,0.053,0.313-0.365,0.537-0.403l-0.039,0.334l0.339-0.312l0.104,0.42l0.213-0.06c-0.077-0.03-0.151-0.173-0.126-0.267
									c0.336-0.11,0.739,0.333,0.725,0.506l0.785-0.185c-0.034,0.132-0.166,0.162-0.276,0.235
									c0.444-0.289,0.026,0.362,0.433,0.097c-0.038-0.083,0.054-0.195,0.07-0.262c0.156,0.226,0.57,0.282,0.889,0.237
									l-0.089,0.223c0.547,0.131,1.184,0.043,1.805,0.129c-0.209-0.136-0.105-0.529,0.082-0.543l0.027,0.362
									c0.146-0.202-0.173-0.158,0.104-0.393c0.227,0.071,0.104,0.422-0.046,0.52l0.299-0.085c0.003,0.107-0.07,0.154-0.105,0.286
									c0.146-0.204,0.441,0.419,0.659,0.06l0.002,0.107c0.621,0.085,0.92,0,1.429,0.049c0.05-0.303,0.239-0.21,0.422-0.436
									c0.36,0.146,0.742,0.44,1.194,0.473c0.335-0.11,0.126-0.246,0.291-0.409c-0.013,0.281,0.438,0.313,0.18,0.483
									c0.545,0.025,0.695,0.034,1.406-0.102c-0.06-0.123-0.136-0.185-0.08-0.272c0.129-0.03,0.266,0.153,0.23,0.284l-0.036,0.024
									c0.204-0.079,0.41-0.054,0.615,0.021c0.259,0.082,0.295,0.185,0.323,0.281c0.078,0.195-0.076,0.34,0.283,0.093l-0.037,0.024
									c0.097-0.052,0.25-0.127,0.265-0.093c0.06-0.024,0.118-0.043,0.175-0.055c-0.08,0.139-0.231,0.094-0.449,0.284
									c0.252-0.082,0.204,0.062,0.152,0.138c-0.026,0.043-0.058,0.08-0.063,0.115c-0.009,0.061,0.022,0.018,0.072,0.186
									c-0.898,0.31-0.199,1.589-0.791,2.122l0.197-0.012c0.17,0.18-0.134,0.176-0.191,0.287c0.151,0.001,0.193-0.149,0.287-0.04
									c0.075,1.343-0.549,2.705-0.767,4.085c-0.068,0.503,0.998,0.308,0.521,0.928l-0.358-0.185
									c0.209,0.51,0.206,1.023,0.203,1.537c0,0.257-0.004,0.514,0.023,0.767c0.022,0.227,0.081,0.59,0.174,0.583
									c-0.085-0.023-0.193-0.027-0.193-0.046c-0.25,0.023-0.019,0.102,0.16,0.222c-0.043,0.029-0.183-0.07-0.288-0.104
									c-0.191,0.031,0.077,0.549-0.193,0.49c-0.045-0.008-0.047-0.088-0.048-0.126c0.052,0.167-0.315,0.45,0.001,0.517
									c-0.295,0.195-0.237,0.6-0.539,0.707c0.171,0.344-0.468,0.348-0.128,0.688c-0.371-0.324-0.671,0.188-0.644,0.497
									c-0.064-0.151-0.235,0.03-0.334-0.17c-0.15,0.177-0.235,0.394-0.024,0.542c-0.715-0.112-0.312,0.966-1.006,0.563
									c-0.348,0.655-0.777,1.194-1.263,1.633c-0.24-0.423,0.565-0.43,0.246-0.842c-0.36,0.496-0.449,1.048-1.041,1.229
									c-0.168,0.012-0.021-0.231-0.018-0.329c-0.434,0.464-1.038,0.457-1.44,0.884c-0.014-0.044,0.023-0.11,0.062-0.163
									c-0.093,0.05-0.25,0.012-0.167,0.219l0.076-0.091c0.275,0.252-0.185,0.781-0.163,0.95c-0.01-0.664-0.573-0.003-0.513-0.864
									c-0.054,0.059-0.109,0.184-0.057,0.324c-0.111-0.015-0.162-0.093-0.106-0.283c-0.327,0.207-0.147,0.409-0.485,0.477
									c-0.021-0.106,0.039-0.161,0.046-0.293c-0.121,0.241-0.261,0.485-0.565,0.438c0.007-0.067-0.038-0.146,0.047-0.157
									c-0.475,0.104-0.799,0.669-1.379,0.479c0.154-0.474-0.193-0.152-0.221-0.562l-0.292,0.117l0.113,0.2
									c-0.257-0.011-0.508,0.271-0.727,0.12l0.207-0.153l-0.495,0.034l0.265,0.182c-0.29,0.183-0.018,0.52-0.37,0.367
									c0.079-0.03-0.275-0.037-0.379-0.297l0.001-0.001c-0.151,0.108-0.313,0.221-0.495,0.084
									c-0.027-0.138,0.125-0.437,0.107-0.528c-0.192,0.314-0.623-0.032-0.872,0.275c0.076-0.069,0.13-0.275,0.124-0.323
									l-0.176,0.241c-0.099-0.118-0.105-0.164-0.041-0.323c-0.344-0.148-0.023,0.533-0.393,0.194
									c0.039-0.012,0.035-0.056,0.117-0.076c-0.393-0.234-0.883-0.095-1.224-0.375c0.037-0.425,0.371,0.033,0.365-0.34
									c-0.562-0.129-1.318-0.008-1.795-0.361l0.076,0.09c-0.336,0.479-0.254-0.45-0.636-0.351
									c0.084-0.002,0.237-0.236,0.189-0.189c-0.297-0.27-0.767-0.269-1.377-0.444l0.143-0.084
									c-0.125-0.238-0.474-0.401-0.64-0.604c-0.147,0.08-0.252-0.023-0.305,0.204c-0.131-1.133-1.487-0.54-1.583-1.545
									c0.065,0.052,0.236,0.027,0.185-0.015l-0.54-0.28c-0.13,0.222-0.041,0.166-0.074,0.397c-0.155,0.064-0.361,0.041-0.473-0.06
									c0.314,0.055,0.265-0.307,0.272-0.488c-0.037,0.071-0.124,0.108-0.168,0.174c0.066-0.543-0.379,0.344-0.496-0.17
									l0.106-0.082c-0.164-0.059-0.392-0.032-0.494-0.179c0.148-0.263,0.219,0.017,0.391-0.151
									c-0.188-0.15-0.73,0.071-0.688-0.292c0.131,0.015,0.24,0.115,0.37,0.129c0.065-0.414-0.015-0.368-0.104-0.531l0.007,0.018
									l-0.181-0.396l0.007,0.14c-0.753,0.324-0.533-0.338-1.175-0.288c0.618-0.038,0.242-0.142,0.503-0.348
									c-0.005-0.14-0.039-0.324,0.06-0.355c-0.327,0.045-0.063-0.375-0.534-0.309c0.069-0.08-0.131-0.157,0.096-0.306
									c-0.228-0.128-0.098,0.168-0.21,0.243c-0.532-0.043-0.273-0.964-1.01-1.056c-0.467-0.231-0.8-0.07-1.226-0.305
									c0.036-0.226,0.379-0.15,0.379-0.15c-0.034-0.288-0.17-0.411-0.41-0.514c0.101-0.022,0.133-0.109,0.183-0.238
									c-0.136-0.126-0.38,0.146-0.408-0.143c0.119-0.041,0.301-0.117,0.45-0.122c-0.211-0.106-0.499-0.153-0.713-0.271
									c0.11-0.161,0.306-0.066,0.45-0.079c-0.221-0.146-0.53-0.411-0.812-0.296l0.015,0.192c-0.067-0.064,0.172-0.19,0.255-0.17
									c0.314,0.031,0.109,0.31,0.032,0.385l-0.152-0.085c-0.395,0.514,0.476,0.45,0.647,0.722l-0.44,0.178l0.501,0.024
									c-0.048,0.129-0.214,0.326-0.369,0.243c-0.028,0.323,0.255,0.06,0.188,0.373c-0.017,0.042-0.04,0.048-0.066,0.044
									l0.25,0.091c-0.103,0.026-0.224,0.233-0.263,0.083c0.061,0.486,0.686,0.291,0.523,0.631l-0.043-0.008
									c0.486,0.335,0.29-0.173,0.864-0.106l-0.434,0.758l0.289-0.179c0.03,0.052,0.088,0.155-0.026,0.228
									c0.316,0.013,0.084-0.124,0.33-0.172c-0.04,0.415,0.625,0.481,0.277,0.887c0.255-0.098-0.04-0.331,0.295-0.229
									c-0.361,0.453,0.308,0.189,0.295,0.555c-0.269,0.146-0.325-0.141-0.337,0.229c0.468-0.229,0.272,0.441,0.497,0.534
									c0.29-0.271,0.453,0.223,0.81,0.385c-0.111,0.08,0.349,0.637,0.509,0.975l-0.053,0.042c0.32-0.25,0.531,0.042,0.78,0.149
									c-0.166,0.175-0.263,0.215-0.44,0.202l0.185,0.16c0.128-0.059,0.23-0.061,0.38,0.008l-0.242,0.188
									c0.26,0.203,0.728,0.152,0.928,0.569c0.19-0.206,0.233-0.811,0.686-0.689c-0.082,0.128-0.229,0.342-0.357,0.319
									c0.042,0.008,0.183-0.017,0.202,0.081l-0.294,0.092c0.08,0.205,0.209-0.105,0.313,0.006
									c-0.136,0.169-0.006,0.189-0.128,0.313c-0.044-0.007-0.05-0.151-0.147-0.121c0.11,0.138,0.199,0.363,0.155,0.536
									c0.063-0.107,0.175-0.23,0.292-0.179c0.271,0.182-0.065,0.275,0.022,0.479c0.153-0.074,0.233,0.175,0.425-0.085
									c0.077,0.057,0.003,0.19-0.016,0.283c0.22-0.018,0.68,0.415,0.712,0.021l-0.023-0.043c0.01-0.001,0.018,0.004,0.031,0.004
									l-0.001-0.001l0.001,0.001c0.628,0.034,0.864,0.771,1.417,0.922l-0.054,0.094c0.346,0.054,0.68,0.283,0.992,0.177
									c0.086,0.042,0.118,0.277,0.026,0.376c0.265,0.034,0.336-0.063,0.597,0.246c-0.309,0.07,0.014,0.189-0.295,0.021
									c0.263,0.219,0.27,0.412,0.712,0.271c-0.218,0.211,0.106,0.419,0.286,0.396l-0.148-0.268
									c0.181,0.024,0.316,0.104,0.458,0.178l-0.204,0.313c0.537,0.661,1.4-0.339,1.726,0.497c0.235-0.205-0.327-0.262-0.097-0.513
									c0.287,0.123,0.51,0.699,0.613,0.72c0.41,0.278,0.498-0.45,0.926-0.253c-0.043-0.136-0.047-0.485,0.29-0.568
									c0.294,0.076,0.333,0.577,0.122,0.662c-0.077,0.004-0.11-0.041-0.103-0.084c-0.106,0.038-0.249,0.076-0.138,0.23
									l0.056-0.124c0.144,0.149,0.593,0.169,0.474,0.373c0.257-0.109,0.117-0.204-0.058-0.285c0.404,0.215,0.646,0.04,1.076,0.163
									c-0.069-0.07-0.133-0.222-0.065-0.222c0.627,0.146,0.268-0.251,0.676-0.328c0.248,0.18-0.052,0.479,0.357,0.278
									c0.272,0.108,0.092,0.338-0.007,0.454c0.37-0.285,0.764,0.076,1.007,0.081l-0.197,0.138c0.119-0.083,0.224-0.096,0.33-0.115
									l-0.166-0.234c0.131,0.023,0.234,0.004,0.252,0.11c0.094-0.19-0.172-0.405,0.024-0.682c0.186,0.1,0.438-0.24,0.574,0.079
									c-0.523,0.005,0.138,0.325-0.279,0.478c0.075-0.06,0.177-0.079,0.31-0.064c0.027,0.032-0.001,0.073-0.03,0.101
									c0.567,0.174,0.132-0.431,0.62-0.563c-0.007,0.206,0.222,0.317,0.291,0.252c-0.202,0.059-0.188-0.279-0.06-0.478
									c0.355,0.041,0.294-0.221,0.456-0.26l-0.203-0.002c-0.005-0.204,0.15-0.233,0.33-0.37c0.073,0.135-0.146,0.17-0.05,0.203
									c0.097-0.403,0.649,0.12,0.872-0.238c0.201,0.051,0.17,0.324,0.338,0.342c0.24-0.399,0.508,0.045,0.779-0.342
									c-0.234-0.17-0.215-0.104-0.093-0.467c0,0-0.123,0.122-0.246,0.244c-0.128,0.119-0.256,0.238-0.256,0.238l0.199-0.536
									c-0.174,0.093-0.293,0.343-0.421,0.357c0.084-0.282,0.093-0.213-0.089-0.364c0.422,0.225,0.357-0.445,0.75-0.371l0.32,0.561
									c0.573-0.008,0.554-0.73,1.14-0.959l-0.227,0.026c-0.083-0.255,0.283-0.253,0.377-0.458
									c0.118,0.182,0.265,0.166,0.416,0.217c-0.108-0.116,0.366-0.279,0.125-0.646l0.394,0.034
									c0.452-0.253-0.002-0.831,0.373-1.104c0.068,0.266,0.33,0.22,0.222,0.564c0.115-0.11,0.244-0.187,0.139-0.293
									c0.166,0.026,0.093-0.518,0.339-0.485c-0.025-0.114-0.179-0.279-0.051-0.398c0.046,0.014,0.08,0.07,0.08,0.07
									c-0.079-0.071,0.068-0.302-0.211-0.343c0.834,0.073,0.787-1.054,1.486-1.065c0.136-0.326,0.298-0.711,0.439-0.987
									c0.045,0.049,0.092,0.055,0.043,0.095c0.397-0.291-0.422-0.499,0.032-0.877c0.47-0.15,0.028,0.357,0.238,0.237
									c0.344,0.112,0.428-0.107,0.483-0.356c-0.001-0.268-0.166-0.563,0.047-0.799l0.047,0.113
									c0.225-0.326-0.294-0.581-0.255-0.988c0,0,0.063,0.018,0.106,0c-0.369-0.252-0.496-0.753-0.598-1.127
									c0.278,0.116,0.148,0.169,0.431,0.099c-0.042-0.167-0.455,0.05-0.532-0.285c0.152-0.108,0.287-0.348,0.589-0.375
									l0.015,0.313c0.391-0.157-0.011-0.403,0.062-0.567l0.17,0.023c-0.048-0.476-0.475-0.495-0.425-1.011l-0.132,0.048
									c-0.412-0.302,0.249-0.226-0.054-0.522l0.436-0.063c-0.095-0.19-0.379-0.675-0.435-1.018
									c0.306,0.215,0.441,0.613,0.619,0.863c0.012-0.182,0.008-0.621-0.198-0.733c0.036,0.078,0.136,0.178,0.064,0.246
									c-0.324-0.247-0.468-0.56-0.429-0.929c0.826,0.14,0.298-0.937,0.979-1.128c-0.234-0.677,0.29-1.247,0.358-1.985
									c-0.686,0.156,0.018-0.218-0.648-0.283c-0.014-0.181,0.01-0.245,0.055-0.253c-0.019,0.092,0.532-0.686,0.541-0.712
									c0.244-0.223,0.097,0.263,0.256,0.241c0.191-0.682,0.347-0.296,0.646-0.83c-0.276,0.146-0.313-0.164-0.104-0.612
									l-0.477,0.662c-0.089-0.399,0.113-0.624,0.33-0.918c0.215-0.277,0.45-0.63,0.361-0.993c0.002-0.006,0.179,0.151,0.177,0.158
									c-0.002-0.083,0.014-0.202,0.039-0.345c-0.679-0.047-1.763-0.188-2.387,0.17c-0.031-0.082-0.051-0.27,0.199-0.285
									c-0.29-0.059-0.627-0.077-0.957-0.075c-0.161,0.005-0.325,0.009-0.489,0.014c-0.148,0.009-0.202,0.032-0.308,0.047
									c-0.369,0.064-0.715,0.1-0.954-0.099l0.072-0.155c-0.132,0.031-0.259,0.276-0.394,0.092
									c0.017-0.065,0.071-0.155,0.015-0.172c-0.073,0.047-0.37,0.241-0.523,0.124l0.166-0.164
									c-0.627-0.298-1.063,0.313-1.626,0.352c0.063-0.477-0.431-0.7-0.678-0.812l0.018-0.066c-0.755-0.159-1.347,0.226-2.077,0.32
									c-0.37-0.575-1.455-0.412-2.121-0.794c0.096,0.101-0.066,0.369-0.198,0.4c-0.152-0.118-0.5,0.271-0.417-0.163l0.059,0.016
									c-0.068-0.446-0.423-0.376-0.687-0.422l-0.119,0.566c-0.584-0.924-1.857,0.067-2.138-0.728
									c-0.213,0.117-0.334,0.1-0.637,0.206l0.039-0.307c-0.02-0.005-0.037-0.009-0.049-0.012
									c-0.236-0.019-0.299-0.035-0.397-0.048c-0.095-0.013-0.185-0.022-0.276-0.027c-0.187-0.009-0.387,0-0.67,0.036l0.119-0.222
									c-0.326-0.021-0.412,0.893-0.713,0.911l-0.091-0.462c-0.086,0.001-0.175-0.009-0.358-0.024
									c-0.241,0.012-0.313-0.008-0.446-0.018c-0.122-0.011-0.244-0.02-0.363-0.016c-0.24,0.008-0.471,0.07-0.681,0.275
									c0-0.069,0-0.204,0.088-0.233c-0.267,0.022-1.068-0.175-0.889,0.441c-0.06-0.409-0.587,0.036-0.868,0.257l0.007-0.309
									c-0.206,0.42-0.2,0.526-0.545,0.681c-0.09-0.028-0.106-0.232,0.017-0.17c-0.304-0.121-0.183,0.315-0.549,0.199l0.103-0.209
									c-0.295,0.015-0.258,0.116-0.389,0.361c-0.167,0.146-0.563-0.003-0.643-0.271c-0.017,0.172-0.147,0.416-0.33,0.359
									c-0.037-0.1,0.018-0.172,0.045-0.208c-0.515-0.142-0.679,0.447-1.053,0.194c-0.021-0.099-0.049-0.146-0.081-0.173
									c0.389-0.043,0.703-0.067,0.677-0.042c-0.037-0.278-0.356-0.287-0.157-0.704c-0.224,0.243-0.594,0.755-0.916,0.665
									c-0.018-0.025-0.036-0.049-0.053-0.091l0.027-0.035c-0.073-0.019-0.134,0.015-0.187,0.07
									c-0.104-0.033-0.169-0.059-0.264-0.051c-0.066-0.225-0.375-0.077-0.532-0.067c0.053,0.303-0.158,0.281,0.067,0.508
									c-0.028-0.019,0.024-0.041,0.126-0.067c0.022-0.011,0.049-0.02,0.063-0.04l-0.007,0.029
									c0.102-0.019,0.235-0.044,0.386-0.072c-0.103,0.171-0.215,0.318-0.41,0.172c-0.054,0.206-0.116,0.419-0.153,0.521
									c-0.269-0.397-0.711-0.573-0.803-0.828c-0.455,0.234-1.108,0.26-1.332,0.873c-0.126,0.091-0.178-0.144-0.24-0.227
									c0.071-0.068,0.165-0.071,0.196-0.159c-0.251,0.183-0.795,0.163-0.808,0.571c-0.365-0.136,0.144-0.394-0.317-0.267
									l0.047-0.131c-0.503-0.259-0.845,0.045-1.202,0.329c-0.213,0.146-0.474,0.293-0.718,0.356
									c-0.261,0.065-0.548,0.052-1.076-0.087c0.141,0.032,0.206,0.048,0.277,0.106c-0.406-0.02-0.868-0.023-1.183,0.069
									c0.16,0.641,0.41,1.323,0.551,1.918c0.151,0.655,0.177,1.02,0.027,1.507c-0.066,0.337,0.193,0.334,0.415,0.504l-0.317,0.115
									l0.423,0.286c0.339,0.45-0.702,0.921-0.118,1.469l0.214-0.101c-0.02,0.222,0.194,0.682-0.064,0.667
									c0.042,0.019,0.237,0.053,0.128,0.147l-0.172,0.021l0.335,0.515c-0.098,0.427-0.686-0.018-0.684,0.587
									c0.08,0.218,0.534,0.614,0.646,0.525c0.004-0.092,0.096-0.238,0.269-0.255l0.1,0.205c0.511,0.013,1.04,0.16,1.369-0.387
									l-0.332-0.35l0.24-0.134l0.033,0.31c0.222-0.189,0.011-0.29-0.139-0.404c0.129-0.038,0.217-0.096,0.261-0.172l-0.51-0.326
									c0.195-0.059,0.406,0.133,0.498-0.118c-0.238-0.151-0.434,0.195-0.602-0.071c0.215-0.193,0.408-0.158,0.194-0.348
									c0.128-0.039,0.215-0.003,0.28,0.074c-0.172-0.171-0.11-0.48-0.389-0.549c0.267-0.211-0.137-0.608,0.343-0.643
									c-0.12-0.045-0.413-0.28-0.452-0.444c0.611,0.237-0.045-0.631,0.577-0.631c-0.544-0.159-0.343-0.793-0.694-1.149
									c0.044,0.016,0.133,0.047,0.113,0.086c0.007-0.233,0.148-0.324,0.221-0.487c-0.214,0.022-0.36-0.052-0.489-0.146
									c-0.12-0.038-0.225-0.108-0.368-0.156c0.399-0.113,0.524,0.066,0.915-0.002c-0.346,0.038-0.373-0.105-0.671-0.13
									c0.253-0.031,0.116-0.051,0.493,0.028c-0.583-0.19-0.105-0.066-0.483-0.277c0.273,0.037,0.566,0.275,0.36,0.091
									C87.803,101.944,88.033,102.115,88.03,102.104z M93.517,100.444l0.001,0.006c-0.066,0.016-0.123,0.029-0.159,0.038
									C93.391,100.479,93.437,100.467,93.517,100.444z M94.171,100.354c-0.081-0.002-0.181,0.009-0.286,0.025
									c-0.037-0.102-0.026-0.213,0.041-0.216C93.899,100.237,94.063,100.277,94.171,100.354z M92.507,98.424
									c0.099-0.057,0.141-0.002,0.163,0.059c-0.048,0.012-0.104,0.029-0.176,0.061l-0.007,0.039
									C92.488,98.522,92.493,98.466,92.507,98.424z"/>
								<path fill="#B77B53" d="M92.373,98.847c-0.014,0.01-0.021,0.023-0.04,0.028c0.025,0.025,0.048,0.044,0.071,0.061l0.024-0.1
									L92.373,98.847z"/>
								<path fill="#B77B53" d="M95.853,117.937l0.008,0.014c-0.003-0.017-0.005-0.033,0-0.053
									C95.86,117.915,95.854,117.924,95.853,117.937z"/>
								<polygon fill="#B77B53" points="102.957,100.215 102.967,100.138 102.9,100.198 								"/>
								<path fill="#B77B53" d="M93.63,114.874c0.013-0.024,0.021-0.054,0.017-0.089C93.635,114.801,93.632,114.835,93.63,114.874z"
									/>
								<path fill="#B77B53" d="M92.548,113.771l-0.079-0.231C92.493,113.65,92.521,113.72,92.548,113.771z"/>
								<path fill="#B77B53" d="M91.821,112.822c-0.049,0.026-0.081,0.051-0.111,0.074l0,0.003L91.821,112.822z"/>
								<path fill="#B77B53" d="M107.839,118.567c0.013-0.007,0.024-0.017,0.034-0.028
									C107.944,118.448,107.89,118.494,107.839,118.567z"/>
								<path fill="#B77B53" d="M102.675,119.774c0.065-0.047,0.131-0.093,0.194-0.12
									C102.776,119.618,102.703,119.603,102.675,119.774z"/>
								<polygon fill="#B77B53" points="112.32,115.046 112.323,115.05 112.348,115.023 								"/>
								<path fill="#B77B53" d="M103.12,119.691c-0.09-0.072-0.171-0.068-0.251-0.037
									C102.945,119.687,103.035,119.729,103.12,119.691z"/>
								<path fill="#B77B53" d="M88.593,108.815l-0.025-0.053c-0.016,0.014-0.031,0.021-0.044,0.024L88.593,108.815z"/>
								<path fill="#B77B53" d="M88.524,108.787l-0.067-0.028C88.475,108.782,88.492,108.801,88.524,108.787z"/>
								<path fill="#B77B53" d="M88.314,108.699l0.143,0.06C88.43,108.722,88.402,108.67,88.314,108.699z"/>
								<path fill="#B77B53" d="M89.457,110.141l0.098-0.057C89.531,110.092,89.499,110.109,89.457,110.141z"/>
								<path fill="#B77B53" d="M89.786,110.49c-0.054-0.104,0-0.371-0.153-0.45l-0.079,0.044
									C89.729,110.038,89.571,110.525,89.786,110.49z"/>
								<path fill="#B77B53" d="M90.072,112.922l-0.209-0.365c-0.041,0.133-0.097,0.312-0.243,0.188
									C89.705,113.371,89.745,112.489,90.072,112.922z"/>
								<path fill="#B77B53" d="M90.824,113.978c-0.195-0.122-0.122,0.121-0.178,0.16C90.822,114.164,90.866,114.169,90.824,113.978
									z"/>
								<path fill="#B77B53" d="M98.281,119.604l-0.141,0.243C98.319,119.887,98.188,119.75,98.281,119.604z"/>
								<polygon fill="#B77B53" points="100.441,118.931 100.353,118.714 100.195,118.931 								"/>
								<polygon fill="#B77B53" points="100.862,121.142 100.774,121.159 101.098,121.139 								"/>
								<path fill="#B77B53" d="M115.519,115.385l-0.312-0.158C115.187,115.359,115.482,115.61,115.519,115.385z"/>
								<path fill="#B77B53" d="M116.545,108.456c0.176-0.064,0.294-0.241,0.13-0.361
									C116.645,108.239,116.504,108.379,116.545,108.456z"/>
								<polygon fill="#B77B53" points="105.06,97.704 105.208,97.607 104.945,97.67 								"/>
							</g>
						</g>
					</g>
				</g>
			</g>
		</g>
		<path fill="#CC885A" d="M136.563,41.422c0.218,0.639,7.104,44.28-8.917,60.451c-16.019,16.171-43.726,6.6-50.477-9.974
			c-5.826-14.305-6.952-41.258,4.383-57.731S125.378,8.627,136.563,41.422z"/>
		<g>
			<g>
				<path fill="#AD683A" d="M115.739,53.299c-0.462,5.095-0.923,10.19-1.385,15.286c-0.25,2.766-0.501,5.532-0.751,8.298
					c-0.157,1.736-2.287,1.262-4.525,1.699c-0.519,0.102-0.298,0.892,0.219,0.791c1.573-0.307,3.146-0.615,4.72-0.922
					c0.188-0.037,0.285-0.223,0.301-0.396c0.747-8.252,1.495-16.504,2.242-24.756C116.607,52.772,115.786,52.777,115.739,53.299
					L115.739,53.299z"/>
			</g>
		</g>
		
			<ellipse transform="matrix(0.999 -0.0439 0.0439 0.999 -2.8553 4.2829)" fill="#010C39" cx="96.075" cy="67.143" rx="1.902" ry="2.72"/>
		
			<ellipse transform="matrix(0.999 -0.0439 0.0439 0.999 -2.868 5.4491)" fill="#010C39" cx="122.649" cy="68.031" rx="1.902" ry="2.721"/>
		<g>
			<g>
				<path fill="#AD683A" d="M66.15,72.477c3.218,0.214,5.459,2.924,4.66,6.154c-0.523,2.115-2.938,1.871-4,0.374
					c-0.714-1.006-0.423-2.073,0.761-2.427c1.046-0.313,2.178,0.164,2.859,0.956c0.346,0.401,0.923-0.181,0.58-0.58
					c-1.228-1.426-5.258-2.08-5.418,0.655c-0.128,2.176,2.315,4.007,4.358,3.24c2.596-0.975,2.128-5.105,0.819-6.884
					c-1.031-1.401-2.914-2.194-4.621-2.307C65.622,71.622,65.625,72.442,66.15,72.477L66.15,72.477z"/>
			</g>
		</g>
		<g>
			<g>
				<path fill="#AD683A" d="M143.872,73.753c-1.712,0.114-3.458,0.895-4.556,2.224c-1.484,1.797-1.757,5.752,0.656,6.926
					c2.017,0.98,4.317-0.964,4.471-2.969c0.089-1.163-1.016-1.892-2.009-2.1c-1.263-0.264-2.599,0.257-3.424,1.216
					c-0.343,0.398,0.234,0.981,0.58,0.58c1.268-1.472,5.077-1.319,3.735,1.282c-0.858,1.665-3.264,1.941-4.029,0.077
					c-1.329-3.236,1.454-6.208,4.575-6.415C144.397,74.539,144.4,73.718,143.872,73.753L143.872,73.753z"/>
			</g>
		</g>
		<g>
			<ellipse fill="#F4826C" cx="126.454" cy="82.975" rx="5.894" ry="4.761"/>
		</g>
		<g>
			<ellipse fill="#F4826C" cx="86.958" cy="80.147" rx="5.894" ry="4.761"/>
		</g>
		<ellipse fill="#EAA16E" cx="108.904" cy="92.189" rx="1.436" ry="0.667"/>
		<path fill="#010C39" d="M90.407,54.395c0.259,1.353,2.816,0.678,6.013,0.067c3.197-0.611,5.823-0.927,5.565-2.28
			c-0.259-1.353-3.06-1.954-6.258-1.343C92.531,51.449,90.148,53.041,90.407,54.395z"/>
		<path fill="#010C39" d="M120.166,53.515c-0.265,1.352,2.359,1.68,5.554,2.305c3.195,0.626,5.75,1.312,6.015-0.04
			s-2.11-2.955-5.305-3.58C123.234,51.575,120.431,52.164,120.166,53.515z"/>
		<g>
			<defs>
				<path id="SVGID_7_" d="M139.333,142.325c-4.177-1.301-7.632-3.01-10.495-4.991c-8.278,10.785-37.487,19.701-55.995,0.677
					c-2.655,1.692-5.783,3.164-9.477,4.314c-31.032,9.672-38.084,19.345-40.503,57.631h77.379h2.217h77.377
					C177.418,161.67,170.366,151.997,139.333,142.325z"/>
			</defs>
			<clipPath id="SVGID_8_">
				<use xlink:href="#SVGID_7_"  overflow="visible"/>
			</clipPath>
			<path clip-path="url(#SVGID_8_)" fill="#CC5050" d="M139.333,142.325c-4.177-1.301-7.632-3.01-10.495-4.991
				c-8.278,10.785-37.487,19.701-55.995,0.677c-2.655,1.692-5.783,3.164-9.477,4.314c-31.032,9.672-38.084,19.345-40.503,57.631
				h77.379h2.217h77.377C177.418,161.67,170.366,151.997,139.333,142.325z"/>
			<path clip-path="url(#SVGID_8_)" fill="#A82F2F" d="M157.349,174.649c-8.773,6.825-19.499,11.7-31.198,13.649
				c-35.318,8.365-68.862,1.661-99.793-14.188c-1.793,6.825-2.824,15.232-3.494,25.845h77.379h2.217h77.377
				c-1.144-18.11-3.33-29.813-8.595-38.146C166.965,166.371,162.158,170.58,157.349,174.649z"/>
			<path clip-path="url(#SVGID_8_)" fill="#FFFFFF" d="M20.187,144.933c0,0,55.195,28.937,160.722,0l2.954,3.426
				c0,0-99.894,31.838-165.026,0L20.187,144.933z"/>
			<path clip-path="url(#SVGID_8_)" fill="#FFFFFF" d="M20.187,166.96c0,0,55.195,28.936,160.722,0l2.954,3.425
				c0,0-99.894,31.839-165.026,0L20.187,166.96z"/>
			<path clip-path="url(#SVGID_8_)" fill="#FFFFFF" d="M20.187,188.986c0,0,55.195,28.937,160.722,0l2.954,3.426
				c0,0-99.894,31.837-165.026,0L20.187,188.986z"/>
		</g>
		<g>
			<g>
				<path fill="#AD683A" d="M98.021,82.933c4.239,7.794,17.753,8.897,21.303-0.098c0.194-0.493-0.6-0.704-0.791-0.218
					c-3.291,8.338-15.928,7.03-19.804-0.098C98.477,82.054,97.768,82.468,98.021,82.933L98.021,82.933z"/>
			</g>
		</g>
		<path fill="#010C39" d="M81.552,34.168c0,0,10.252,4.836,1.789,13.299c0,0,6.062,15.123-10.419,16.478
			c0,0-5.566-3.008-10.872-0.071c0,0-9.337-10.413,2.955-17.063c0,0-2.62-8.262,5.44-11.687
			C78.505,31.7,81.552,34.168,81.552,34.168z"/>
		<path fill="#010C39" d="M134.826,37.021c0,0-3.325,10.094,0.805,15.333c0,0-6.077,15.61,0.992,13.357
			c2.117-0.674,4.375-0.866,6.52-0.282c1.367,0.373,2.848,1.018,4.2,2.115c0,0,10.656-5.72,0.581-15.594
			C147.924,51.95,154.977,34.684,134.826,37.021z"/>
		<path fill="#E64054" d="M149.074,44.268c-0.048,0.93-46.516-9.042-84.286-2.048c0,0-0.335-23.277,20.23-35.346
			c18.763-11.011,42.817-5.731,55.96,11.605C146.002,25.105,149.616,33.63,149.074,44.268z"/>
		<path fill="#FFC7D3" d="M145.654,25.664c-1.308-2.727-2.884-5.222-4.633-7.486C127.723,0.96,103.623-4.101,84.958,7.078
			c-7.624,4.567-12.328,10.664-15.233,16.517C93.2-12.915,138.631,13.282,145.654,25.664z"/>
		<path fill="#010C39" d="M103.971,28.047c0,0,2.357-14.818,15.867-12.241c15.058,2.871,14.962-1.738,14.962-1.738
			s2.872,5.667-1.599,11.183c-2.081,2.569-6.573,3.7-11.7,2.418C121.501,27.669,112.357,36.888,103.971,28.047z"/>
	</g>
	<path display="none" fill="#E8F5F9" d="M133.525,80.376c0,0-5.582,1.001-12.029-2.68c-5.475-5.012-12.931-5.238-12.933-5.237
		c-0.002-0.001-7.491-1.362-13.756,2.33C88.54,78.483,78.3,78.58,78.3,78.58l-1.704,11.504l3.59,7.81c0,0,8.407,12.646,24.043,14.35
		l0,0l0,0l0,0l0,0c15.637,1.702,23.197-8.851,25.087-11.16c1.887-2.311,3.791-8.85,3.791-8.85L133.525,80.376z"/>
	<path display="none" fill="#AFB2BF" d="M124.431,82.511c-2.116-1.259-3.788-2.893-5.778-4.264
		c-2.336-1.609-4.998-2.893-7.964-3.412c-0.047-0.016-0.097-0.029-0.152-0.035c-0.07-0.008-0.139-0.014-0.207-0.021
		c-0.068-0.012-0.136-0.023-0.205-0.032c-0.059-0.008-0.109-0.008-0.158-0.004c-2.998-0.253-5.9,0.31-8.569,1.271
		c-2.273,0.818-4.304,1.973-6.673,2.651c-0.667,0.19-0.206,1.033,0.461,0.842c2.155-0.616,4.035-1.611,6.062-2.418
		c2.744-1.09,5.814-1.75,8.966-1.417c3.135,0.482,5.936,1.9,8.31,3.653c1.758,1.296,3.321,2.737,5.246,3.882
		C124.366,83.563,125.027,82.865,124.431,82.511z"/>
	<g display="none" opacity="0.6">
		<g display="inline">
			<path fill="#CEE8EF" d="M97.035,83.096c5.916,3.421,14.008,4.061,20.497,2.233c1.678-0.472,0.476-2.555-1.198-2.084
				c-4.018,1.131-8.41,1.119-12.571,0.03c-1.321-0.346-2.606-0.799-3.839-1.329c-0.086-0.038-0.171-0.075-0.257-0.113
				c-0.392-0.175,0.223,0.108-0.127-0.059c-0.171-0.08-0.341-0.165-0.509-0.251c-0.127-0.065-0.255-0.132-0.378-0.204
				C97.151,80.452,95.535,82.23,97.035,83.096L97.035,83.096z"/>
		</g>
		<g display="inline">
			<path fill="#CEE8EF" d="M84.979,86.103c3.775,2.188,8.277,3.737,12.625,4.883c9.799,2.581,20.123,2.709,29.685,0.252
				c0.459-0.119,0.915-0.246,1.371-0.377c1.675-0.479,0.474-2.563-1.197-2.084c-9.204,2.631-19.331,2.61-28.882,0.133
				c-3.072-0.797-6.067-1.834-8.925-3.079c-0.6-0.263-0.733-0.326-1.172-0.535c-0.34-0.162-0.677-0.329-1.01-0.5
				c-0.295-0.151-0.59-0.305-0.876-0.47C85.098,83.455,83.481,85.233,84.979,86.103L84.979,86.103z"/>
		</g>
		<g display="inline">
			<path fill="#CEE8EF" d="M84.248,92.813c3.774,2.189,8.276,3.737,12.625,4.882c9.797,2.582,20.125,2.71,29.684,0.253
				c0.459-0.119,0.916-0.248,1.371-0.377c1.676-0.479,0.472-2.564-1.198-2.085c-9.202,2.632-19.331,2.61-28.881,0.134
				c-3.072-0.797-6.067-1.834-8.924-3.081c-0.601-0.262-0.735-0.324-1.173-0.534c-0.341-0.163-0.678-0.329-1.011-0.5
				c-0.295-0.151-0.591-0.305-0.876-0.47C84.366,90.166,82.75,91.944,84.248,92.813L84.248,92.813z"/>
		</g>
		<g display="inline">
			<path fill="#CEE8EF" d="M88.356,100.957c3.008,1.725,6.586,2.935,10.048,3.82c7.886,2.013,16.155,1.99,23.757-0.138
				c1.68-0.47,0.478-2.553-1.197-2.085c-6.96,1.949-14.601,1.929-21.815,0.087c-2.342-0.599-4.623-1.378-6.806-2.313
				c-0.168-0.074-0.338-0.148-0.507-0.223c-0.078-0.035-0.157-0.07-0.235-0.106c-0.373-0.168,0.236,0.111-0.111-0.05
				c-0.288-0.135-0.571-0.275-0.854-0.417c-0.223-0.113-0.446-0.228-0.663-0.352C88.47,98.316,86.851,100.094,88.356,100.957
				L88.356,100.957z"/>
		</g>
	</g>
	<path display="none" opacity="0.06" fill="#0E0F0F" d="M104.229,112.244L104.229,112.244c5.326,0.58,9.713-0.262,13.262-1.716
		c-33.04-7.651-20.115-36.967-20.115-36.967l0,0c-0.865,0.33-1.728,0.732-2.569,1.229C88.54,78.483,78.3,78.58,78.3,78.58
		l-1.704,11.504l2.615,5.86C79.211,95.944,88.594,110.541,104.229,112.244z"/>
	<path display="none" fill="#E8F5F9" d="M130.905,82.164c0,0,5.247-4.041,4.938-16.677l1.16,0.242c0,0,0.481,10.947-4.507,17.526
		L130.905,82.164z"/>
	<path display="none" fill="#E8F5F9" d="M129.104,98.906l0.475,1.201c1.597-1.951,3.322-5.07,4.872-8.25l-1.059-0.148
		C130.786,96.749,129.104,98.906,129.104,98.906z"/>
	<path display="none" fill="#E8F5F9" d="M79.25,80.319c0,0-2.158-4.319-5.561-16.319c-0.321,0-0.642,0-0.963,0
		c1.048,4,3.57,12.615,5.753,17.478L79.25,80.319z"/>
</g>
</svg>
