<?xml version="1.0" encoding="utf-8"?>
<!-- Generator: Adobe Illustrator 16.0.0, SVG Export Plug-In . SVG Version: 6.00 Build 0)  -->
<!DOCTYPE svg PUBLIC "-//W3C//DTD SVG 1.1//EN" "http://www.w3.org/Graphics/SVG/1.1/DTD/svg11.dtd">
<svg version="1.1" id="圖層_1" xmlns="http://www.w3.org/2000/svg" xmlns:xlink="http://www.w3.org/1999/xlink" x="0px" y="0px"
	 width="182.656px" height="237.666px" viewBox="0 -70.5 182.656 237.666" enable-background="new 0 -70.5 182.656 237.666"
	 xml:space="preserve">
<path fill="#512203" d="M165.951,158.698v-0.775c0-4.94-4.004-8.942-8.942-8.942H27.156c-4.939,0-8.942,4.002-8.942,8.942v0.775
	c0,3.203,1.687,6.002,4.215,7.583h139.307C164.264,164.7,165.951,161.901,165.951,158.698z"/>
<path fill="#3A2217" d="M22.429,166.085c1.374,1.557,2.99,1.557,4.727,1.557h129.853c1.738,0,3.354,0,4.728-1.557H22.429z"/>
<rect x="13.548" y="-68.739" fill="#FFFFFF" width="158.622" height="213.053"/>
<rect x="13.548" y="-68.739" fill="#F7E2CD" width="155.515" height="213.053"/>
<rect x="19.769" y="-64.074" fill="#E5B97A" width="144.628" height="208.387"/>
<rect x="22.879" y="-59.409" fill="#210F0E" width="136.851" height="203.334"/>
<path fill="#4C2C1E" d="M97.524-59.409h-9.33v3.111c2.628,0,6.359,0,9.33,0V-59.409z"/>
<path fill="#7A6648" d="M97.524-56.298c-2.971,0-6.702,0-9.33,0v41.989c2.628,0,6.359,0,9.33,0V-56.298z"/>
<rect x="22.879" y="-14.31" fill="#D3C09F" width="136.851" height="9.331"/>
<path fill="#CCC0B8" d="M88.194-14.31v1.555h9.33v-1.555C94.554-14.31,90.822-14.31,88.194-14.31z"/>
<path fill="#D3C09F" d="M89.749-14.31c2.075,0,4.147,0,6.223,0v-41.989c-1.557,0-4.667,0-6.223,0V-14.31z"/>
<path fill="#664C12" d="M89.749-59.409v3.111c1.556,0,4.666,0,6.223,0v-3.111H89.749z"/>
<path fill="#EEEBF2" d="M89.749-14.31v1.555h6.223v-1.555C93.896-14.31,91.824-14.31,89.749-14.31z"/>
<rect x="22.879" y="-12.754" fill="#FFFDFE" width="136.851" height="7.776"/>
<rect x="22.879" y="-11.199" fill="#F9DFBB" width="136.851" height="6.22"/>
<path fill="#F9DFBB" d="M181.504,150.535c0,3.435-2.787,6.22-6.222,6.22H8.883c-3.436,0-6.22-2.785-6.22-6.22l0,0
	c0-3.435,2.785-6.222,6.22-6.222h166.399C178.717,144.313,181.504,147.101,181.504,150.535L181.504,150.535z"/>
<path fill="#F9C662" d="M176.992,148.98H7.529c-0.924,0-1.742,0-2.302,1.555h174.067C178.736,148.98,177.916,148.98,176.992,148.98z
	"/>
<path fill="#F9C662" d="M5.227,150.34c-0.46,0.682-0.75,1.557-0.75,2.527c0,2.147,1.367,3.888,3.052,3.888h169.463
	c1.687,0,3.054-1.74,3.054-3.888c0-0.971-0.289-1.846-0.75-2.527H5.227z"/>
<path fill="#818392" d="M94.415-59.409h-3.11v3.111c0.989,0,2.122,0,3.11,0V-59.409z"/>
<path fill="#FFFFFF" d="M91.305-56.298v43.544h3.11v-43.544C93.427-56.298,92.294-56.298,91.305-56.298z"/>
<rect x="22.879" y="-60.964" fill="#C9B189" width="136.851" height="1.555"/>
<rect x="155.065" y="-14.31" opacity="0.3" fill="#5B3F24" enable-background="new    " width="4.665" height="9.331"/>
<rect x="156.621" y="-14.31" opacity="0.3" fill="#5B3B24" enable-background="new    " width="3.109" height="9.331"/>
<rect x="22.879" y="-14.31" opacity="0.3" fill="#5B3F24" enable-background="new    " width="4.666" height="9.331"/>
<rect x="22.879" y="-14.31" opacity="0.3" fill="#5B3B24" enable-background="new    " width="3.11" height="9.331"/>
<rect x="22.879" y="-59.409" opacity="0.2" fill="#F9CA80" enable-background="new    " width="1.555" height="203.723"/>
<rect x="158.177" y="-59.409" opacity="0.2" fill="#F9CA80" enable-background="new    " width="1.554" height="203.723"/>
</svg>
