<?xml version="1.0" encoding="utf-8"?>
<!-- Generator: Adobe Illustrator 16.0.0, SVG Export Plug-In . SVG Version: 6.00 Build 0)  -->
<!DOCTYPE svg PUBLIC "-//W3C//DTD SVG 1.1//EN" "http://www.w3.org/Graphics/SVG/1.1/DTD/svg11.dtd">
<svg version="1.1" id="圖層_1" xmlns="http://www.w3.org/2000/svg" xmlns:xlink="http://www.w3.org/1999/xlink" x="0px" y="0px"
	 width="115px" height="152px" viewBox="0 0 115 152" enable-background="new 0 0 115 152" xml:space="preserve">
<g>
	<path fill="#1D2053" d="M105,146.25v-0.5c0-3.176-2.574-5.75-5.75-5.75h-83.5c-3.176,0-5.75,2.574-5.75,5.75v0.5
		c0,2.059,1.085,3.859,2.711,4.875h89.578C103.915,150.109,105,148.309,105,146.25z"/>
	<path fill="#71415B" d="M12.711,151c0.883,1,1.922,1,3.039,1h83.5c1.117,0,2.156,0,3.039-1H12.711z"/>
	<rect x="7" fill="#FFFFFF" width="102" height="137"/>
	<rect x="7" fill="#E0E8FD" width="100" height="137"/>
	<rect x="11" y="3" fill="#BBC0FA" width="93" height="134"/>
	<rect x="13" y="6" fill="#24255E" width="88" height="130.75"/>
	<path fill="#1E224F" d="M61,6h-6v2c1.69,0,4.089,0,6,0V6z"/>
	<path fill="#484B7E" d="M61,8c-1.911,0-4.31,0-6,0v27c1.69,0,4.089,0,6,0V8z"/>
	<rect x="13" y="35" fill="#B4AFC3" width="88" height="6"/>
	<path fill="#BBB6CD" d="M55,35v1h6v-1C59.089,35,56.69,35,55,35z"/>
	<path fill="#B8C2F3" d="M56,35c1.333,0,2.666,0,4,0V8c-1,0-3,0-4,0V35z"/>
	<path fill="#50537E" d="M56,6v2c1,0,3,0,4,0V6H56z"/>
	<path fill="#EEEBF2" d="M56,35v1h4v-1C58.666,35,57.333,35,56,35z"/>
	<rect x="13" y="36" fill="#FFFDFE" width="88" height="5"/>
	<rect x="13" y="37" fill="#B8C2F7" width="88" height="4"/>
	<path fill="#B6C3F7" d="M115,141c0,2.209-1.791,4-4,4H4c-2.209,0-4-1.791-4-4l0,0c0-2.209,1.791-4,4-4h107
		C113.209,137,115,138.791,115,141L115,141z"/>
	<path fill="#96A8FC" d="M112.1,140H3.13c-0.595,0-1.121,0-1.481,1H113.58C113.22,140,112.693,140,112.1,140z"/>
	<path fill="#5A75FF" d="M1.649,140.875c-0.296,0.438-0.482,1.001-0.482,1.625c0,1.381,0.879,2.5,1.963,2.5H112.1
		c1.084,0,1.963-1.119,1.963-2.5c0-0.624-0.186-1.188-0.482-1.625H1.649z"/>
	<path fill="#818392" d="M59,6h-2v2c0.637,0,1.363,0,2,0V6z"/>
	<path fill="#FFFFFF" d="M57,8v28h2V8C58.363,8,57.637,8,57,8z"/>
	<rect x="13" y="5" fill="#9CA2D2" width="88" height="1"/>
	<rect x="98" y="35" opacity="0.3" fill="#24255E" width="3" height="6"/>
	<rect x="99" y="35" opacity="0.3" fill="#24255E" width="2" height="6"/>
	<rect x="13" y="35" opacity="0.3" fill="#24255E" width="3" height="6"/>
	<rect x="13" y="35" opacity="0.3" fill="#24255E" width="2" height="6"/>
	<rect x="13" y="6" opacity="0.2" fill="#BBC0FA" width="1" height="131"/>
	<rect x="100" y="6" opacity="0.2" fill="#BBC0FA" width="1" height="131"/>
</g>
</svg>
